<svg width="1100" height="400" viewBox="0 0 1100 400" fill="none" xmlns="http://www.w3.org/2000/svg">
<rect width="1100" height="400" fill="#FEFEFE"/>
<line x1="66" y1="349.5" x2="512" y2="349.5" stroke="#D2D2D2" stroke-opacity="0.558011"/>
<path d="M56.98 74.812C57.82 74.788 58.42 74.596 58.78 74.236C59.14 73.876 59.344 73.456 59.392 72.976C59.44 72.472 59.464 71.608 59.464 70.384V54.832C59.464 53.824 59.5 52.96 59.572 52.24L56.98 52.384V50.8H65.08V51.988C64.24 52.012 63.64 52.204 63.28 52.564C62.92 52.924 62.716 53.356 62.668 53.86C62.62 54.34 62.596 55.192 62.596 56.416V62.392H75.484V54.832C75.484 53.824 75.52 52.96 75.592 52.24L73 52.384V50.8H81.1V51.988C80.26 52.012 79.66 52.204 79.3 52.564C78.94 52.924 78.736 53.356 78.688 53.86C78.64 54.34 78.616 55.192 78.616 56.416V71.716C78.616 72.988 78.58 73.936 78.508 74.56L81.1 74.416V76H73V74.812C73.84 74.788 74.44 74.596 74.8 74.236C75.16 73.876 75.364 73.456 75.412 72.976C75.46 72.472 75.484 71.608 75.484 70.384V63.832L62.596 63.976V71.716C62.596 72.988 62.56 73.936 62.488 74.56L65.08 74.416V76H56.98V74.812ZM92.5104 76.576C90.8544 76.576 89.3304 76.192 87.9384 75.424C86.5704 74.632 85.4784 73.54 84.6624 72.148C83.8704 70.756 83.4744 69.184 83.4744 67.432C83.4744 65.56 83.8704 63.868 84.6624 62.356C85.4544 60.82 86.5344 59.62 87.9024 58.756C89.2944 57.868 90.8304 57.424 92.5104 57.424C94.1664 57.424 95.6904 57.832 97.0824 58.648C98.4744 59.44 99.5664 60.532 100.358 61.924C101.174 63.316 101.582 64.864 101.582 66.568C101.582 68.392 101.174 70.072 100.358 71.608C99.5664 73.144 98.4744 74.356 97.0824 75.244C95.7144 76.132 94.1904 76.576 92.5104 76.576ZM92.7984 75.136C94.5504 75.136 95.8344 74.416 96.6504 72.976C97.4904 71.536 97.9104 69.748 97.9104 67.612C97.9104 65.188 97.4544 63.112 96.5424 61.384C95.6544 59.656 94.3104 58.792 92.5104 58.792C90.7344 58.792 89.3904 59.524 88.4784 60.988C87.5904 62.452 87.1464 64.252 87.1464 66.388C87.1464 67.924 87.3504 69.364 87.7584 70.708C88.1904 72.028 88.8264 73.096 89.6664 73.912C90.5304 74.728 91.5744 75.136 92.7984 75.136ZM104.358 74.92C105.054 74.92 105.546 74.752 105.834 74.416C106.146 74.056 106.326 73.612 106.374 73.084C106.446 72.532 106.482 71.68 106.482 70.528V62.32C106.482 61.312 106.53 60.532 106.626 59.98L104.07 60.124V58.612C105.486 58.612 106.458 58.54 106.986 58.396C107.514 58.228 107.958 57.976 108.318 57.64H109.362C109.41 58 109.458 58.636 109.506 59.548C110.25 58.9 111.09 58.384 112.026 58C112.962 57.616 113.886 57.424 114.798 57.424C115.974 57.424 116.97 57.64 117.786 58.072C118.626 58.48 119.274 59.068 119.73 59.836C120.594 59.14 121.554 58.564 122.61 58.108C123.69 57.652 124.722 57.424 125.706 57.424C127.818 57.424 129.354 58.072 130.314 59.368C131.298 60.64 131.766 62.68 131.718 65.488L131.682 72.184C131.682 73.264 131.634 74.08 131.538 74.632L133.806 74.524V76H126.462V74.92C127.158 74.92 127.65 74.752 127.938 74.416C128.25 74.056 128.43 73.612 128.478 73.084C128.55 72.532 128.586 71.68 128.586 70.528V65.488C128.586 63.424 128.262 61.888 127.614 60.88C126.966 59.848 125.946 59.332 124.554 59.332C123.81 59.332 123.054 59.5 122.286 59.836C121.542 60.148 120.882 60.568 120.306 61.096C120.546 61.84 120.666 62.716 120.666 63.724L120.594 72.184C120.594 73.264 120.546 74.08 120.45 74.632L122.718 74.524V76H115.374V74.92C116.07 74.92 116.562 74.752 116.85 74.416C117.162 74.056 117.342 73.624 117.39 73.12C117.438 72.592 117.474 71.728 117.498 70.528L117.534 65.488C117.558 63.4 117.258 61.84 116.634 60.808C116.01 59.776 115.014 59.26 113.646 59.26C112.902 59.26 112.158 59.416 111.414 59.728C110.694 60.04 110.07 60.46 109.542 60.988L109.578 62.932V72.184C109.578 73.264 109.53 74.08 109.434 74.632L111.702 74.524V76H104.358V74.92ZM144.955 76.576C143.299 76.576 141.799 76.192 140.455 75.424C139.135 74.632 138.091 73.516 137.323 72.076C136.555 70.612 136.171 68.932 136.171 67.036C136.171 65.356 136.555 63.784 137.323 62.32C138.091 60.832 139.159 59.644 140.527 58.756C141.919 57.868 143.491 57.424 145.243 57.424C146.611 57.424 147.847 57.724 148.951 58.324C150.055 58.924 150.931 59.824 151.579 61.024C152.227 62.2 152.551 63.652 152.551 65.38L139.879 65.596C139.855 68.476 140.323 70.72 141.283 72.328C142.267 73.936 143.779 74.74 145.819 74.74C146.923 74.74 148.051 74.452 149.203 73.876C150.379 73.3 151.279 72.592 151.903 71.752L152.767 72.472C151.855 73.864 150.667 74.896 149.203 75.568C147.763 76.24 146.347 76.576 144.955 76.576ZM149.167 64.084C149.167 62.644 148.843 61.408 148.195 60.376C147.547 59.344 146.575 58.828 145.279 58.828C142.303 58.828 140.539 60.58 139.987 64.084H149.167Z" fill="#222222"/>
<line x1="55" y1="167.5" x2="501" y2="167.5" stroke="#D2D2D2" stroke-opacity="0.558011"/>
<line x1="55" y1="262.5" x2="501" y2="262.5" stroke="#D2D2D2" stroke-opacity="0.558011"/>
<path d="M66.5488 145H63.9121L58.7793 136.58V145H56.1426V132.203H58.7793L63.9209 140.641V132.203H66.5488V145ZM74.0539 145C73.9367 144.771 73.8517 144.487 73.799 144.147C73.1838 144.833 72.384 145.176 71.3996 145.176C70.4679 145.176 69.6945 144.906 69.0793 144.367C68.4699 143.828 68.1652 143.148 68.1652 142.328C68.1652 141.32 68.5373 140.547 69.2814 140.008C70.0314 139.469 71.1125 139.196 72.5246 139.19H73.6935V138.646C73.6935 138.206 73.5793 137.854 73.3508 137.591C73.1281 137.327 72.7736 137.195 72.2873 137.195C71.8595 137.195 71.5226 137.298 71.2765 137.503C71.0363 137.708 70.9162 137.989 70.9162 138.347H68.3761C68.3761 137.796 68.5461 137.286 68.8859 136.817C69.2258 136.349 69.7062 135.982 70.3273 135.719C70.9484 135.449 71.6457 135.314 72.4191 135.314C73.591 135.314 74.5197 135.61 75.2053 136.202C75.8967 136.788 76.2424 137.614 76.2424 138.681V142.803C76.2482 143.705 76.3742 144.388 76.6203 144.851V145H74.0539ZM71.9533 143.233C72.3283 143.233 72.674 143.151 72.9904 142.987C73.3068 142.817 73.5412 142.592 73.6935 142.311V140.676H72.7443C71.4728 140.676 70.7961 141.115 70.714 141.994L70.7053 142.144C70.7053 142.46 70.8166 142.721 71.0392 142.926C71.2619 143.131 71.5666 143.233 71.9533 143.233ZM80.4339 135.49L80.513 136.554C81.1869 135.728 82.098 135.314 83.2464 135.314C84.471 135.314 85.3119 135.798 85.7689 136.765C86.4369 135.798 87.389 135.314 88.6253 135.314C89.6566 135.314 90.4242 135.616 90.9281 136.22C91.432 136.817 91.6839 137.72 91.6839 138.927V145H89.1351V138.936C89.1351 138.396 89.0296 138.004 88.8187 137.758C88.6078 137.506 88.2357 137.38 87.7025 137.38C86.9408 137.38 86.4134 137.743 86.1205 138.47L86.1293 145H83.5892V138.944C83.5892 138.394 83.4808 137.995 83.264 137.749C83.0472 137.503 82.6781 137.38 82.1566 137.38C81.4359 137.38 80.9144 137.679 80.5921 138.276V145H78.0521V135.49H80.4339ZM97.8794 145.176C96.4849 145.176 95.3482 144.748 94.4693 143.893C93.5962 143.037 93.1597 141.897 93.1597 140.474V140.228C93.1597 139.272 93.3443 138.42 93.7134 137.67C94.0826 136.914 94.604 136.334 95.2779 135.93C95.9576 135.52 96.731 135.314 97.5982 135.314C98.899 135.314 99.9214 135.725 100.666 136.545C101.416 137.365 101.791 138.528 101.791 140.034V141.071H95.7349C95.8169 141.692 96.063 142.19 96.4732 142.565C96.8892 142.94 97.4136 143.128 98.0464 143.128C99.0249 143.128 99.7896 142.773 100.34 142.064L101.588 143.462C101.208 144.001 100.692 144.423 100.042 144.728C99.3911 145.026 98.6704 145.176 97.8794 145.176ZM97.5894 137.371C97.0855 137.371 96.6753 137.541 96.3589 137.881C96.0484 138.221 95.8492 138.707 95.7613 139.34H99.2945V139.138C99.2827 138.575 99.1304 138.142 98.8374 137.837C98.5445 137.526 98.1284 137.371 97.5894 137.371Z" fill="#222222"/>
<path d="M113.646 147.354C113.842 147.549 114.158 147.549 114.354 147.354L117.536 144.172C117.731 143.976 117.731 143.66 117.536 143.464C117.34 143.269 117.024 143.269 116.828 143.464L114 146.293L111.172 143.464C110.976 143.269 110.66 143.269 110.464 143.464C110.269 143.66 110.269 143.976 110.464 144.172L113.646 147.354ZM113.5 132V147H114.5V132H113.5Z" fill="black"/>
<path d="M122.256 213.296C120.809 212.88 119.754 212.37 119.092 211.767C118.436 211.157 118.107 210.407 118.107 209.517C118.107 208.509 118.509 207.677 119.312 207.021C120.12 206.358 121.169 206.027 122.458 206.027C123.337 206.027 124.119 206.197 124.805 206.537C125.496 206.877 126.029 207.346 126.404 207.943C126.785 208.541 126.976 209.194 126.976 209.903H125.279C125.279 209.13 125.033 208.523 124.541 208.084C124.049 207.639 123.354 207.416 122.458 207.416C121.626 207.416 120.976 207.601 120.507 207.97C120.044 208.333 119.812 208.84 119.812 209.49C119.812 210.012 120.032 210.454 120.472 210.817C120.917 211.175 121.67 211.503 122.73 211.802C123.797 212.101 124.629 212.432 125.227 212.795C125.83 213.152 126.275 213.571 126.562 214.052C126.855 214.532 127.002 215.098 127.002 215.748C127.002 216.785 126.598 217.617 125.789 218.244C124.98 218.865 123.899 219.176 122.546 219.176C121.667 219.176 120.847 219.009 120.085 218.675C119.323 218.335 118.734 217.872 118.318 217.286C117.908 216.7 117.703 216.035 117.703 215.291H119.399C119.399 216.064 119.684 216.677 120.252 217.128C120.826 217.573 121.591 217.796 122.546 217.796C123.437 217.796 124.119 217.614 124.594 217.251C125.068 216.888 125.306 216.393 125.306 215.766C125.306 215.139 125.086 214.655 124.646 214.315C124.207 213.97 123.41 213.63 122.256 213.296ZM130.403 210.642C131.123 209.757 132.061 209.314 133.215 209.314C135.225 209.314 136.238 210.448 136.256 212.716V219H134.63V212.707C134.624 212.021 134.466 211.515 134.155 211.187C133.851 210.858 133.373 210.694 132.723 210.694C132.195 210.694 131.733 210.835 131.334 211.116C130.936 211.397 130.625 211.767 130.403 212.224V219H128.777V205.5H130.403V210.642ZM138.119 214.157C138.119 213.226 138.3 212.388 138.663 211.644C139.033 210.899 139.542 210.325 140.193 209.921C140.849 209.517 141.596 209.314 142.434 209.314C143.729 209.314 144.775 209.763 145.572 210.659C146.374 211.556 146.776 212.748 146.776 214.236V214.351C146.776 215.276 146.597 216.108 146.24 216.847C145.888 217.579 145.381 218.15 144.719 218.561C144.063 218.971 143.307 219.176 142.452 219.176C141.162 219.176 140.117 218.728 139.314 217.831C138.517 216.935 138.119 215.748 138.119 214.271V214.157ZM139.753 214.351C139.753 215.405 139.996 216.252 140.483 216.891C140.975 217.529 141.631 217.849 142.452 217.849C143.278 217.849 143.934 217.526 144.42 216.882C144.907 216.231 145.15 215.323 145.15 214.157C145.15 213.114 144.901 212.271 144.403 211.626C143.911 210.976 143.254 210.65 142.434 210.65C141.631 210.65 140.984 210.97 140.492 211.608C139.999 212.247 139.753 213.161 139.753 214.351ZM153.27 210.949C153.024 210.908 152.757 210.888 152.47 210.888C151.404 210.888 150.68 211.342 150.299 212.25V219H148.673V209.49H150.255L150.282 210.589C150.815 209.739 151.571 209.314 152.549 209.314C152.866 209.314 153.106 209.355 153.27 209.438V210.949ZM157.277 207.188V209.49H159.052V210.747H157.277V216.645C157.277 217.025 157.356 217.312 157.514 217.506C157.673 217.693 157.942 217.787 158.323 217.787C158.51 217.787 158.768 217.752 159.096 217.682V219C158.669 219.117 158.253 219.176 157.848 219.176C157.122 219.176 156.574 218.956 156.205 218.517C155.836 218.077 155.651 217.453 155.651 216.645V210.747H153.92V209.49H155.651V207.188H157.277ZM169.167 213.296C167.72 212.88 166.665 212.37 166.003 211.767C165.347 211.157 165.019 210.407 165.019 209.517C165.019 208.509 165.42 207.677 166.223 207.021C167.031 206.358 168.08 206.027 169.369 206.027C170.248 206.027 171.03 206.197 171.716 206.537C172.407 206.877 172.94 207.346 173.315 207.943C173.696 208.541 173.887 209.194 173.887 209.903H172.19C172.19 209.13 171.944 208.523 171.452 208.084C170.96 207.639 170.266 207.416 169.369 207.416C168.537 207.416 167.887 207.601 167.418 207.97C166.955 208.333 166.724 208.84 166.724 209.49C166.724 210.012 166.943 210.454 167.383 210.817C167.828 211.175 168.581 211.503 169.642 211.802C170.708 212.101 171.54 212.432 172.138 212.795C172.741 213.152 173.187 213.571 173.474 214.052C173.767 214.532 173.913 215.098 173.913 215.748C173.913 216.785 173.509 217.617 172.7 218.244C171.892 218.865 170.811 219.176 169.457 219.176C168.578 219.176 167.758 219.009 166.996 218.675C166.234 218.335 165.646 217.872 165.23 217.286C164.819 216.7 164.614 216.035 164.614 215.291H166.311C166.311 216.064 166.595 216.677 167.163 217.128C167.737 217.573 168.502 217.796 169.457 217.796C170.348 217.796 171.03 217.614 171.505 217.251C171.98 216.888 172.217 216.393 172.217 215.766C172.217 215.139 171.997 214.655 171.558 214.315C171.118 213.97 170.321 213.63 169.167 213.296ZM177.894 207.188V209.49H179.669V210.747H177.894V216.645C177.894 217.025 177.973 217.312 178.131 217.506C178.289 217.693 178.559 217.787 178.94 217.787C179.127 217.787 179.385 217.752 179.713 217.682V219C179.285 219.117 178.869 219.176 178.465 219.176C177.739 219.176 177.191 218.956 176.822 218.517C176.452 218.077 176.268 217.453 176.268 216.645V210.747H174.536V209.49H176.268V207.188H177.894ZM180.829 214.157C180.829 213.226 181.01 212.388 181.373 211.644C181.743 210.899 182.252 210.325 182.903 209.921C183.559 209.517 184.306 209.314 185.144 209.314C186.439 209.314 187.485 209.763 188.282 210.659C189.084 211.556 189.486 212.748 189.486 214.236V214.351C189.486 215.276 189.307 216.108 188.95 216.847C188.598 217.579 188.091 218.15 187.429 218.561C186.773 218.971 186.017 219.176 185.162 219.176C183.872 219.176 182.827 218.728 182.024 217.831C181.227 216.935 180.829 215.748 180.829 214.271V214.157ZM182.463 214.351C182.463 215.405 182.706 216.252 183.193 216.891C183.685 217.529 184.341 217.849 185.162 217.849C185.988 217.849 186.644 217.526 187.13 216.882C187.617 216.231 187.86 215.323 187.86 214.157C187.86 213.114 187.611 212.271 187.113 211.626C186.621 210.976 185.964 210.65 185.144 210.65C184.341 210.65 183.694 210.97 183.202 211.608C182.709 212.247 182.463 213.161 182.463 214.351ZM195.98 210.949C195.734 210.908 195.467 210.888 195.18 210.888C194.114 210.888 193.39 211.342 193.009 212.25V219H191.383V209.49H192.965L192.992 210.589C193.525 209.739 194.281 209.314 195.259 209.314C195.576 209.314 195.816 209.355 195.98 209.438V210.949ZM200.611 216.618L202.826 209.49H204.566L200.743 220.468C200.151 222.05 199.211 222.841 197.922 222.841L197.614 222.814L197.008 222.7V221.382L197.447 221.417C197.998 221.417 198.426 221.306 198.73 221.083C199.041 220.86 199.296 220.453 199.495 219.861L199.855 218.895L196.463 209.49H198.238L200.611 216.618ZM217.52 213.349H212.15V219H210.462V206.203H218.39V207.592H212.15V211.969H217.52V213.349ZM221.782 219H220.156V209.49H221.782V219ZM220.024 206.968C220.024 206.704 220.103 206.481 220.261 206.3C220.425 206.118 220.665 206.027 220.982 206.027C221.298 206.027 221.538 206.118 221.702 206.3C221.867 206.481 221.949 206.704 221.949 206.968C221.949 207.231 221.867 207.451 221.702 207.627C221.538 207.803 221.298 207.891 220.982 207.891C220.665 207.891 220.425 207.803 220.261 207.627C220.103 207.451 220.024 207.231 220.024 206.968ZM228.847 210.949C228.601 210.908 228.334 210.888 228.047 210.888C226.981 210.888 226.257 211.342 225.876 212.25V219H224.25V209.49H225.832L225.859 210.589C226.392 209.739 227.148 209.314 228.126 209.314C228.443 209.314 228.683 209.355 228.847 209.438V210.949ZM235.746 216.478C235.746 216.038 235.579 215.698 235.245 215.458C234.917 215.212 234.34 215.001 233.513 214.825C232.693 214.649 232.04 214.438 231.553 214.192C231.073 213.946 230.715 213.653 230.481 213.313C230.253 212.974 230.138 212.569 230.138 212.101C230.138 211.321 230.466 210.662 231.123 210.123C231.785 209.584 232.629 209.314 233.654 209.314C234.732 209.314 235.605 209.593 236.273 210.149C236.947 210.706 237.284 211.418 237.284 212.285H235.649C235.649 211.84 235.459 211.456 235.078 211.134C234.703 210.812 234.228 210.65 233.654 210.65C233.062 210.65 232.599 210.779 232.265 211.037C231.931 211.295 231.764 211.632 231.764 212.048C231.764 212.44 231.92 212.736 232.23 212.936C232.541 213.135 233.1 213.325 233.909 213.507C234.723 213.688 235.382 213.905 235.886 214.157C236.39 214.409 236.762 214.714 237.003 215.071C237.249 215.423 237.372 215.854 237.372 216.363C237.372 217.213 237.032 217.896 236.352 218.411C235.673 218.921 234.791 219.176 233.707 219.176C232.945 219.176 232.271 219.041 231.685 218.771C231.099 218.502 230.639 218.127 230.305 217.646C229.977 217.16 229.813 216.636 229.813 216.073H231.439C231.468 216.618 231.685 217.052 232.09 217.374C232.5 217.69 233.039 217.849 233.707 217.849C234.322 217.849 234.814 217.726 235.183 217.479C235.558 217.228 235.746 216.894 235.746 216.478ZM241.555 207.188V209.49H243.33V210.747H241.555V216.645C241.555 217.025 241.634 217.312 241.792 217.506C241.95 217.693 242.22 217.787 242.6 217.787C242.788 217.787 243.046 217.752 243.374 217.682V219C242.946 219.117 242.53 219.176 242.126 219.176C241.399 219.176 240.851 218.956 240.482 218.517C240.113 218.077 239.929 217.453 239.929 216.645V210.747H238.197V209.49H239.929V207.188H241.555ZM249.674 219V206.203H253.286C254.4 206.203 255.384 206.449 256.239 206.941C257.095 207.434 257.754 208.134 258.217 209.042C258.686 209.95 258.923 210.993 258.929 212.171V212.988C258.929 214.195 258.695 215.253 258.226 216.161C257.763 217.069 257.098 217.767 256.231 218.253C255.369 218.739 254.364 218.988 253.216 219H249.674ZM251.362 207.592V217.62H253.137C254.438 217.62 255.448 217.216 256.169 216.407C256.896 215.599 257.259 214.447 257.259 212.953V212.206C257.259 210.753 256.916 209.625 256.231 208.822C255.551 208.014 254.584 207.604 253.33 207.592H251.362ZM265.687 210.949C265.441 210.908 265.174 210.888 264.887 210.888C263.821 210.888 263.097 211.342 262.716 212.25V219H261.09V209.49H262.672L262.699 210.589C263.232 209.739 263.988 209.314 264.966 209.314C265.283 209.314 265.523 209.355 265.687 209.438V210.949ZM272.568 219C272.474 218.812 272.398 218.479 272.339 217.998C271.584 218.783 270.681 219.176 269.632 219.176C268.695 219.176 267.924 218.912 267.321 218.385C266.723 217.852 266.424 217.178 266.424 216.363C266.424 215.373 266.799 214.605 267.549 214.061C268.305 213.51 269.366 213.234 270.731 213.234H272.313V212.487C272.313 211.919 272.143 211.468 271.803 211.134C271.463 210.794 270.962 210.624 270.3 210.624C269.72 210.624 269.234 210.771 268.841 211.063C268.449 211.356 268.252 211.711 268.252 212.127H266.618C266.618 211.652 266.785 211.195 267.119 210.756C267.459 210.311 267.916 209.959 268.49 209.701C269.07 209.443 269.706 209.314 270.397 209.314C271.493 209.314 272.351 209.59 272.972 210.141C273.593 210.686 273.916 211.438 273.939 212.399V216.776C273.939 217.649 274.05 218.344 274.273 218.859V219H272.568ZM269.87 217.761C270.379 217.761 270.863 217.629 271.32 217.365C271.777 217.102 272.108 216.759 272.313 216.337V214.386H271.039C269.046 214.386 268.05 214.969 268.05 216.135C268.05 216.645 268.22 217.043 268.56 217.33C268.9 217.617 269.336 217.761 269.87 217.761ZM277.146 219V210.747H275.643V209.49H277.146V208.515C277.146 207.495 277.419 206.707 277.964 206.15C278.509 205.594 279.279 205.315 280.275 205.315C280.65 205.315 281.022 205.365 281.391 205.465L281.303 206.783C281.028 206.73 280.735 206.704 280.425 206.704C279.897 206.704 279.49 206.859 279.203 207.17C278.916 207.475 278.772 207.914 278.772 208.488V209.49H280.802V210.747H278.772V219H277.146ZM284.669 207.188V209.49H286.444V210.747H284.669V216.645C284.669 217.025 284.748 217.312 284.906 217.506C285.064 217.693 285.334 217.787 285.715 217.787C285.902 217.787 286.16 217.752 286.488 217.682V219C286.06 219.117 285.644 219.176 285.24 219.176C284.514 219.176 283.966 218.956 283.597 218.517C283.227 218.077 283.043 217.453 283.043 216.645V210.747H281.311V209.49H283.043V207.188H284.669Z" fill="#222222"/>
<path d="M130.441 313.383C129.984 313.963 129.313 314.411 128.429 314.728C127.55 315.038 126.557 315.185 125.449 315.167C124.576 315.161 123.809 314.971 123.146 314.596C122.484 314.215 121.963 313.67 121.582 312.961C121.201 312.252 120.984 311.443 120.932 310.535C120.873 309.691 120.961 308.701 121.195 307.564C121.436 306.422 121.843 305.423 122.417 304.567C122.997 303.706 123.691 303.064 124.5 302.643C125.309 302.215 126.205 302.01 127.189 302.027C128.525 302.051 129.571 302.429 130.327 303.161C131.083 303.888 131.514 304.931 131.619 306.29L129.141 306.281C129.076 305.566 128.886 305.039 128.569 304.699C128.253 304.359 127.781 304.178 127.154 304.154C126.07 304.119 125.215 304.597 124.588 305.587C123.967 306.571 123.612 308.001 123.524 309.876C123.466 310.878 123.618 311.654 123.981 312.205C124.351 312.756 124.91 313.037 125.66 313.049C126.533 313.072 127.277 312.864 127.893 312.425L128.323 310.219H125.985L126.328 308.276H131.215L130.441 313.383ZM138.386 307.872C138.046 307.813 137.768 307.784 137.551 307.784C136.666 307.761 135.966 308.092 135.45 308.777L134.352 315H131.873L133.526 305.49L135.855 305.481L135.626 306.642C136.224 305.745 136.962 305.297 137.841 305.297C138.087 305.297 138.374 305.338 138.702 305.42L138.386 307.872ZM142.542 315.176C141.71 315.17 140.972 314.968 140.327 314.569C139.689 314.165 139.211 313.614 138.895 312.917C138.578 312.214 138.455 311.44 138.526 310.597L138.552 310.245C138.64 309.319 138.91 308.47 139.361 307.696C139.812 306.923 140.392 306.328 141.101 305.912C141.81 305.49 142.595 305.291 143.456 305.314C144.681 305.338 145.607 305.789 146.234 306.668C146.867 307.541 147.107 308.648 146.954 309.99L146.814 311.071H140.987C140.963 311.687 141.113 312.179 141.435 312.548C141.757 312.917 142.197 313.107 142.753 313.119C143.656 313.143 144.447 312.794 145.126 312.073L146.26 313.479C145.903 314.019 145.387 314.44 144.713 314.745C144.039 315.044 143.316 315.188 142.542 315.176ZM143.333 307.362C142.876 307.351 142.469 307.494 142.112 307.793C141.76 308.092 141.444 308.61 141.162 309.349H144.573L144.625 309.12C144.661 308.886 144.663 308.663 144.634 308.452C144.576 308.112 144.432 307.849 144.203 307.661C143.975 307.468 143.685 307.368 143.333 307.362ZM152.913 315C152.836 314.76 152.804 314.473 152.816 314.139C152.101 314.854 151.293 315.199 150.39 315.176C149.558 315.164 148.867 314.895 148.316 314.367C147.771 313.834 147.516 313.178 147.551 312.398C147.592 311.361 148.026 310.567 148.852 310.017C149.684 309.46 150.797 309.182 152.192 309.182L153.352 309.199L153.475 308.628C153.51 308.435 153.519 308.25 153.501 308.074C153.472 307.799 153.367 307.585 153.185 307.433C153.009 307.274 152.775 307.192 152.482 307.187C152.095 307.175 151.767 307.271 151.498 307.477C151.228 307.676 151.055 307.966 150.979 308.347L148.492 308.355C148.533 307.447 148.949 306.712 149.74 306.149C150.537 305.581 151.518 305.303 152.684 305.314C153.762 305.338 154.606 305.66 155.215 306.281C155.825 306.896 156.08 307.69 155.98 308.663L155.251 313.216L155.207 313.778C155.195 314.194 155.245 314.546 155.356 314.833L155.347 315H152.913ZM151.005 313.251C151.72 313.274 152.344 312.964 152.877 312.319L153.185 310.676L152.324 310.667C151.41 310.69 150.751 310.969 150.346 311.502C150.2 311.695 150.109 311.933 150.074 312.214C150.027 312.53 150.091 312.782 150.267 312.97C150.449 313.151 150.695 313.245 151.005 313.251ZM161.754 303.152L161.341 305.49H162.923L162.597 307.354H161.015L160.207 312.117C160.172 312.416 160.195 312.645 160.277 312.803C160.359 312.961 160.558 313.046 160.875 313.058C160.968 313.063 161.22 313.049 161.631 313.014L161.455 314.956C161.015 315.103 160.541 315.17 160.031 315.158C159.217 315.146 158.61 314.892 158.212 314.394C157.813 313.896 157.649 313.222 157.719 312.372L158.537 307.354H157.192L157.517 305.49H158.862L159.266 303.152H161.754ZM174.566 312.363H170.102L168.783 315H165.944L172.782 302.203H175.164L177.599 315H174.971L174.566 312.363ZM171.156 310.228H174.241L173.521 305.464L171.156 310.228ZM182.124 305.481L181.922 306.562C182.69 305.707 183.618 305.291 184.708 305.314C185.294 305.326 185.781 305.461 186.167 305.719C186.554 305.977 186.815 306.325 186.949 306.765C187.787 305.774 188.772 305.291 189.903 305.314C190.776 305.332 191.432 305.631 191.871 306.211C192.317 306.791 192.504 307.629 192.434 308.725L192.416 308.944L191.406 315H188.918L189.929 308.927C189.952 308.71 189.961 308.508 189.955 308.32C189.914 307.705 189.563 307.389 188.901 307.371C188.221 307.371 187.638 307.734 187.152 308.461L187.125 308.663L186.018 315H183.539L184.55 308.944C184.573 308.728 184.582 308.525 184.576 308.338C184.535 307.717 184.187 307.397 183.531 307.38C182.904 307.362 182.338 307.658 181.834 308.268L180.648 315H178.169L179.813 305.49L182.124 305.481ZM197.75 315.176C196.918 315.17 196.18 314.968 195.536 314.569C194.897 314.165 194.419 313.614 194.103 312.917C193.787 312.214 193.663 311.44 193.734 310.597L193.76 310.245C193.848 309.319 194.118 308.47 194.569 307.696C195.02 306.923 195.6 306.328 196.309 305.912C197.018 305.49 197.803 305.291 198.664 305.314C199.889 305.338 200.815 305.789 201.442 306.668C202.075 307.541 202.315 308.648 202.163 309.99L202.022 311.071H196.195C196.171 311.687 196.321 312.179 196.643 312.548C196.965 312.917 197.405 313.107 197.961 313.119C198.864 313.143 199.655 312.794 200.334 312.073L201.468 313.479C201.111 314.019 200.595 314.44 199.921 314.745C199.247 315.044 198.524 315.188 197.75 315.176ZM198.541 307.362C198.084 307.351 197.677 307.494 197.32 307.793C196.968 308.092 196.652 308.61 196.371 309.349H199.781L199.833 309.12C199.869 308.886 199.871 308.663 199.842 308.452C199.784 308.112 199.64 307.849 199.412 307.661C199.183 307.468 198.893 307.368 198.541 307.362ZM209.131 307.872C208.792 307.813 208.513 307.784 208.296 307.784C207.412 307.761 206.712 308.092 206.196 308.777L205.097 315H202.619L204.271 305.49L206.6 305.481L206.372 306.642C206.969 305.745 207.708 305.297 208.587 305.297C208.833 305.297 209.12 305.338 209.448 305.42L209.131 307.872ZM211.565 315H209.069L210.721 305.49H213.218L211.565 315ZM211.011 303.073C211 302.681 211.129 302.355 211.398 302.098C211.668 301.84 211.993 301.711 212.374 301.711C212.749 301.699 213.074 301.813 213.349 302.054C213.625 302.294 213.768 302.604 213.78 302.985C213.792 303.349 213.669 303.665 213.411 303.935C213.159 304.204 212.828 304.345 212.418 304.356C212.049 304.368 211.723 304.257 211.442 304.022C211.167 303.788 211.023 303.472 211.011 303.073ZM217.699 313.137C218.156 313.148 218.537 313.025 218.842 312.768C219.146 312.504 219.346 312.155 219.439 311.722L221.769 311.713C221.727 312.381 221.517 312.981 221.136 313.515C220.761 314.048 220.257 314.464 219.624 314.763C218.997 315.062 218.335 315.202 217.638 315.185C216.483 315.167 215.569 314.769 214.895 313.989C214.222 313.21 213.896 312.173 213.92 310.878L213.946 310.395L213.955 310.298C214.113 308.751 214.635 307.526 215.519 306.624C216.404 305.716 217.497 305.279 218.798 305.314C219.87 305.338 220.72 305.689 221.347 306.369C221.979 307.043 222.29 307.934 222.278 309.041H219.967C219.967 308.531 219.855 308.13 219.633 307.837C219.41 307.544 219.076 307.386 218.631 307.362C217.447 307.327 216.729 308.191 216.477 309.955C216.39 310.594 216.357 311.133 216.381 311.572C216.439 312.598 216.879 313.119 217.699 313.137ZM228.087 315C228.011 314.76 227.979 314.473 227.99 314.139C227.276 314.854 226.467 315.199 225.565 315.176C224.733 315.164 224.041 314.895 223.49 314.367C222.945 313.834 222.691 313.178 222.726 312.398C222.767 311.361 223.2 310.567 224.026 310.017C224.859 309.46 225.972 309.182 227.366 309.182L228.526 309.199L228.65 308.628C228.685 308.435 228.693 308.25 228.676 308.074C228.647 307.799 228.541 307.585 228.359 307.433C228.184 307.274 227.949 307.192 227.656 307.187C227.27 307.175 226.942 307.271 226.672 307.477C226.402 307.676 226.23 307.966 226.153 308.347L223.666 308.355C223.707 307.447 224.123 306.712 224.914 306.149C225.711 305.581 226.693 305.303 227.859 305.314C228.937 305.338 229.78 305.66 230.39 306.281C230.999 306.896 231.254 307.69 231.154 308.663L230.425 313.216L230.381 313.778C230.369 314.194 230.419 314.546 230.53 314.833L230.522 315H228.087ZM226.18 313.251C226.895 313.274 227.519 312.964 228.052 312.319L228.359 310.676L227.498 310.667C226.584 310.69 225.925 310.969 225.521 311.502C225.374 311.695 225.283 311.933 225.248 312.214C225.201 312.53 225.266 312.782 225.442 312.97C225.623 313.151 225.869 313.245 226.18 313.251ZM235.821 305.481L235.61 306.606C236.371 305.722 237.294 305.291 238.378 305.314C239.275 305.332 239.937 305.66 240.365 306.299C240.792 306.938 240.948 307.822 240.83 308.953L239.828 315H237.35L238.369 308.927C238.399 308.698 238.405 308.49 238.387 308.303C238.311 307.705 237.936 307.397 237.262 307.38C236.612 307.356 236.029 307.658 235.513 308.285L234.326 315H231.848L233.5 305.49L235.821 305.481ZM256.218 315H253.722L250.163 306.466L248.677 315H246.102L248.326 302.203H250.813L254.382 310.755L255.867 302.203H258.433L256.218 315ZM263.671 305.314C264.509 305.326 265.229 305.543 265.833 305.965C266.442 306.381 266.888 306.958 267.169 307.696C267.456 308.429 267.558 309.243 267.476 310.14C267.342 311.651 266.814 312.876 265.894 313.813C264.98 314.745 263.849 315.199 262.502 315.176C261.676 315.164 260.961 314.953 260.357 314.543C259.754 314.127 259.308 313.553 259.021 312.82C258.734 312.088 258.632 311.279 258.714 310.395C258.866 308.824 259.399 307.576 260.313 306.65C261.227 305.725 262.347 305.279 263.671 305.314ZM261.166 311.3C261.178 311.862 261.309 312.308 261.561 312.636C261.813 312.958 262.168 313.125 262.625 313.137C263.387 313.16 263.984 312.812 264.418 312.091C264.851 311.364 265.054 310.412 265.024 309.234C265.001 308.672 264.863 308.224 264.611 307.89C264.365 307.55 264.011 307.374 263.548 307.362C262.809 307.339 262.218 307.688 261.772 308.408C261.333 309.123 261.131 310.087 261.166 311.3ZM271.914 311.862L274.621 305.49H277.293L272.696 315H270.323L268.697 305.49H271.211L271.914 311.862ZM281.08 315.176C280.248 315.17 279.51 314.968 278.865 314.569C278.227 314.165 277.749 313.614 277.433 312.917C277.116 312.214 276.993 311.44 277.064 310.597L277.09 310.245C277.178 309.319 277.447 308.47 277.899 307.696C278.35 306.923 278.93 306.328 279.639 305.912C280.348 305.49 281.133 305.291 281.994 305.314C283.219 305.338 284.145 305.789 284.772 306.668C285.404 307.541 285.645 308.648 285.492 309.99L285.352 311.071H279.525C279.501 311.687 279.651 312.179 279.973 312.548C280.295 312.917 280.735 313.107 281.291 313.119C282.194 313.143 282.985 312.794 283.664 312.073L284.798 313.479C284.441 314.019 283.925 314.44 283.251 314.745C282.577 315.044 281.854 315.188 281.08 315.176ZM281.871 307.362C281.414 307.351 281.007 307.494 280.65 307.793C280.298 308.092 279.982 308.61 279.7 309.349H283.111L283.163 309.12C283.198 308.886 283.201 308.663 283.172 308.452C283.113 308.112 282.97 307.849 282.741 307.661C282.513 307.468 282.223 307.368 281.871 307.362ZM288.568 315H286.072L288.418 301.5H290.906L288.568 315ZM298.366 310.491L297.575 315H295L297.223 302.203L301.706 302.212C303.089 302.212 304.176 302.596 304.967 303.363C305.758 304.131 306.103 305.133 306.004 306.369C305.91 307.623 305.385 308.625 304.43 309.375C303.481 310.125 302.268 310.5 300.792 310.5L298.366 310.491ZM298.726 308.355L300.871 308.373C301.562 308.373 302.136 308.194 302.593 307.837C303.051 307.479 303.323 306.996 303.411 306.387C303.499 305.777 303.399 305.291 303.112 304.928C302.831 304.564 302.412 304.371 301.855 304.348L299.429 304.339L298.726 308.355ZM312.568 307.872C312.228 307.813 311.95 307.784 311.733 307.784C310.849 307.761 310.148 308.092 309.633 308.777L308.534 315H306.056L307.708 305.49L310.037 305.481L309.808 306.642C310.406 305.745 311.144 305.297 312.023 305.297C312.269 305.297 312.557 305.338 312.885 305.42L312.568 307.872ZM317.507 305.314C318.345 305.326 319.065 305.543 319.669 305.965C320.278 306.381 320.724 306.958 321.005 307.696C321.292 308.429 321.395 309.243 321.313 310.14C321.178 311.651 320.65 312.876 319.731 313.813C318.816 314.745 317.686 315.199 316.338 315.176C315.512 315.164 314.797 314.953 314.193 314.543C313.59 314.127 313.145 313.553 312.857 312.82C312.57 312.088 312.468 311.279 312.55 310.395C312.702 308.824 313.235 307.576 314.149 306.65C315.064 305.725 316.183 305.279 317.507 305.314ZM315.002 311.3C315.014 311.862 315.146 312.308 315.398 312.636C315.649 312.958 316.004 313.125 316.461 313.137C317.223 313.16 317.82 312.812 318.254 312.091C318.688 311.364 318.89 310.412 318.86 309.234C318.837 308.672 318.699 308.224 318.447 307.89C318.201 307.55 317.847 307.374 317.384 307.362C316.646 307.339 316.054 307.688 315.608 308.408C315.169 309.123 314.967 310.087 315.002 311.3ZM326.172 305.49L324.467 315.519C324.332 316.579 323.948 317.405 323.316 317.997C322.689 318.589 321.877 318.879 320.881 318.867C320.483 318.855 320.043 318.8 319.563 318.7L319.765 316.679C320.058 316.743 320.313 316.781 320.53 316.793C321.309 316.805 321.783 316.383 321.953 315.527L323.676 305.49H326.172ZM323.913 303.073C323.902 302.687 324.025 302.367 324.282 302.115C324.54 301.857 324.871 301.723 325.276 301.711C325.68 301.711 326.011 301.831 326.269 302.071C326.532 302.312 326.67 302.616 326.682 302.985C326.694 303.378 326.571 303.703 326.313 303.961C326.055 304.213 325.724 304.345 325.32 304.356C324.95 304.368 324.625 304.257 324.344 304.022C324.069 303.788 323.925 303.472 323.913 303.073ZM330.891 315.176C330.059 315.17 329.321 314.968 328.676 314.569C328.038 314.165 327.56 313.614 327.244 312.917C326.927 312.214 326.804 311.44 326.874 310.597L326.901 310.245C326.989 309.319 327.258 308.47 327.709 307.696C328.161 306.923 328.741 306.328 329.45 305.912C330.159 305.49 330.944 305.291 331.805 305.314C333.03 305.338 333.955 305.789 334.582 306.668C335.215 307.541 335.455 308.648 335.303 309.99L335.163 311.071H329.335C329.312 311.687 329.461 312.179 329.784 312.548C330.106 312.917 330.545 313.107 331.102 313.119C332.004 313.143 332.795 312.794 333.475 312.073L334.609 313.479C334.251 314.019 333.736 314.44 333.062 314.745C332.388 315.044 331.664 315.188 330.891 315.176ZM331.682 307.362C331.225 307.351 330.818 307.494 330.46 307.793C330.109 308.092 329.792 308.61 329.511 309.349H332.921L332.974 309.12C333.009 308.886 333.012 308.663 332.983 308.452C332.924 308.112 332.781 307.849 332.552 307.661C332.324 307.468 332.034 307.368 331.682 307.362ZM339.925 313.137C340.382 313.148 340.763 313.025 341.068 312.768C341.373 312.504 341.572 312.155 341.666 311.722L343.995 311.713C343.954 312.381 343.743 312.981 343.362 313.515C342.987 314.048 342.483 314.464 341.85 314.763C341.223 315.062 340.561 315.202 339.864 315.185C338.71 315.167 337.796 314.769 337.122 313.989C336.448 313.21 336.123 312.173 336.146 310.878L336.172 310.395L336.181 310.298C336.339 308.751 336.861 307.526 337.746 306.624C338.63 305.716 339.723 305.279 341.024 305.314C342.096 305.338 342.946 305.689 343.573 306.369C344.206 307.043 344.516 307.934 344.504 309.041H342.193C342.193 308.531 342.082 308.13 341.859 307.837C341.636 307.544 341.302 307.386 340.857 307.362C339.673 307.327 338.956 308.191 338.704 309.955C338.616 310.594 338.584 311.133 338.607 311.572C338.666 312.598 339.105 313.119 339.925 313.137ZM349.839 303.152L349.426 305.49H351.008L350.682 307.354H349.1L348.292 312.117C348.257 312.416 348.28 312.645 348.362 312.803C348.444 312.961 348.643 313.046 348.96 313.058C349.053 313.063 349.305 313.049 349.716 313.014L349.54 314.956C349.1 315.103 348.626 315.17 348.116 315.158C347.302 315.146 346.695 314.892 346.297 314.394C345.898 313.896 345.734 313.222 345.804 312.372L346.622 307.354H345.277L345.602 305.49H346.947L347.351 303.152H349.839Z" fill="#222222"/>
<path d="M77.6562 301.25H68.2812L65.1562 298.125H57.3438C56.0493 298.125 55 299.174 55 300.469V314.531C55 315.826 56.0493 316.875 57.3438 316.875H77.6562C78.9507 316.875 80 315.826 80 314.531V303.594C80 302.299 78.9507 301.25 77.6562 301.25Z" fill="#FF9B6A"/>
<g clip-path="url(#clip0)">
<rect width="20.2703" height="25" transform="translate(55 200)" fill="white"/>
<path d="M66.8243 206.641V200H56.2669C55.5648 200 55 200.522 55 201.172V223.828C55 224.478 55.5648 225 56.2669 225H74.0034C74.7054 225 75.2703 224.478 75.2703 223.828V207.812H68.0912C67.3944 207.812 66.8243 207.285 66.8243 206.641ZM75.2703 205.952V206.25H68.5135V200H68.8355C69.1734 200 69.4954 200.122 69.7329 200.342L74.9008 205.127C75.1383 205.347 75.2703 205.645 75.2703 205.952Z" fill="#FF9B6A"/>
</g>
<line x1="599" y1="344.5" x2="1045" y2="344.5" stroke="#D2D2D2" stroke-opacity="0.558011"/>
<path d="M589.98 69.812C590.82 69.788 591.42 69.596 591.78 69.236C592.14 68.876 592.344 68.456 592.392 67.976C592.44 67.472 592.464 66.608 592.464 65.384V49.832C592.464 48.824 592.5 47.96 592.572 47.24L589.98 47.384V45.8H598.08V46.988C597.24 47.012 596.64 47.204 596.28 47.564C595.92 47.924 595.716 48.356 595.668 48.86C595.62 49.34 595.596 50.192 595.596 51.416V57.392H608.484V49.832C608.484 48.824 608.52 47.96 608.592 47.24L606 47.384V45.8H614.1V46.988C613.26 47.012 612.66 47.204 612.3 47.564C611.94 47.924 611.736 48.356 611.688 48.86C611.64 49.34 611.616 50.192 611.616 51.416V66.716C611.616 67.988 611.58 68.936 611.508 69.56L614.1 69.416V71H606V69.812C606.84 69.788 607.44 69.596 607.8 69.236C608.16 68.876 608.364 68.456 608.412 67.976C608.46 67.472 608.484 66.608 608.484 65.384V58.832L595.596 58.976V66.716C595.596 67.988 595.56 68.936 595.488 69.56L598.08 69.416V71H589.98V69.812ZM625.51 71.576C623.854 71.576 622.33 71.192 620.938 70.424C619.57 69.632 618.478 68.54 617.662 67.148C616.87 65.756 616.474 64.184 616.474 62.432C616.474 60.56 616.87 58.868 617.662 57.356C618.454 55.82 619.534 54.62 620.902 53.756C622.294 52.868 623.83 52.424 625.51 52.424C627.166 52.424 628.69 52.832 630.082 53.648C631.474 54.44 632.566 55.532 633.358 56.924C634.174 58.316 634.582 59.864 634.582 61.568C634.582 63.392 634.174 65.072 633.358 66.608C632.566 68.144 631.474 69.356 630.082 70.244C628.714 71.132 627.19 71.576 625.51 71.576ZM625.798 70.136C627.55 70.136 628.834 69.416 629.65 67.976C630.49 66.536 630.91 64.748 630.91 62.612C630.91 60.188 630.454 58.112 629.542 56.384C628.654 54.656 627.31 53.792 625.51 53.792C623.734 53.792 622.39 54.524 621.478 55.988C620.59 57.452 620.146 59.252 620.146 61.388C620.146 62.924 620.35 64.364 620.758 65.708C621.19 67.028 621.826 68.096 622.666 68.912C623.53 69.728 624.574 70.136 625.798 70.136ZM637.358 69.92C638.054 69.92 638.546 69.752 638.834 69.416C639.146 69.056 639.326 68.612 639.374 68.084C639.446 67.532 639.482 66.68 639.482 65.528V57.32C639.482 56.312 639.53 55.532 639.626 54.98L637.07 55.124V53.612C638.486 53.612 639.458 53.54 639.986 53.396C640.514 53.228 640.958 52.976 641.318 52.64H642.362C642.41 53 642.458 53.636 642.506 54.548C643.25 53.9 644.09 53.384 645.026 53C645.962 52.616 646.886 52.424 647.798 52.424C648.974 52.424 649.97 52.64 650.786 53.072C651.626 53.48 652.274 54.068 652.73 54.836C653.594 54.14 654.554 53.564 655.61 53.108C656.69 52.652 657.722 52.424 658.706 52.424C660.818 52.424 662.354 53.072 663.314 54.368C664.298 55.64 664.766 57.68 664.718 60.488L664.682 67.184C664.682 68.264 664.634 69.08 664.538 69.632L666.806 69.524V71H659.462V69.92C660.158 69.92 660.65 69.752 660.938 69.416C661.25 69.056 661.43 68.612 661.478 68.084C661.55 67.532 661.586 66.68 661.586 65.528V60.488C661.586 58.424 661.262 56.888 660.614 55.88C659.966 54.848 658.946 54.332 657.554 54.332C656.81 54.332 656.054 54.5 655.286 54.836C654.542 55.148 653.882 55.568 653.306 56.096C653.546 56.84 653.666 57.716 653.666 58.724L653.594 67.184C653.594 68.264 653.546 69.08 653.45 69.632L655.718 69.524V71H648.374V69.92C649.07 69.92 649.562 69.752 649.85 69.416C650.162 69.056 650.342 68.624 650.39 68.12C650.438 67.592 650.474 66.728 650.498 65.528L650.534 60.488C650.558 58.4 650.258 56.84 649.634 55.808C649.01 54.776 648.014 54.26 646.646 54.26C645.902 54.26 645.158 54.416 644.414 54.728C643.694 55.04 643.07 55.46 642.542 55.988L642.578 57.932V67.184C642.578 68.264 642.53 69.08 642.434 69.632L644.702 69.524V71H637.358V69.92ZM677.955 71.576C676.299 71.576 674.799 71.192 673.455 70.424C672.135 69.632 671.091 68.516 670.323 67.076C669.555 65.612 669.171 63.932 669.171 62.036C669.171 60.356 669.555 58.784 670.323 57.32C671.091 55.832 672.159 54.644 673.527 53.756C674.919 52.868 676.491 52.424 678.243 52.424C679.611 52.424 680.847 52.724 681.951 53.324C683.055 53.924 683.931 54.824 684.579 56.024C685.227 57.2 685.551 58.652 685.551 60.38L672.879 60.596C672.855 63.476 673.323 65.72 674.283 67.328C675.267 68.936 676.779 69.74 678.819 69.74C679.923 69.74 681.051 69.452 682.203 68.876C683.379 68.3 684.279 67.592 684.903 66.752L685.767 67.472C684.855 68.864 683.667 69.896 682.203 70.568C680.763 71.24 679.347 71.576 677.955 71.576ZM682.167 59.084C682.167 57.644 681.843 56.408 681.195 55.376C680.547 54.344 679.575 53.828 678.279 53.828C675.303 53.828 673.539 55.58 672.987 59.084H682.167Z" fill="#222222"/>
<line x1="588" y1="162.5" x2="1034" y2="162.5" stroke="#D2D2D2" stroke-opacity="0.558011"/>
<line x1="588" y1="257.5" x2="1034" y2="257.5" stroke="#D2D2D2" stroke-opacity="0.558011"/>
<path d="M599.549 140H596.912L591.779 131.58V140H589.143V127.203H591.779L596.921 135.641V127.203H599.549V140ZM607.054 140C606.937 139.771 606.852 139.487 606.799 139.147C606.184 139.833 605.384 140.176 604.4 140.176C603.468 140.176 602.695 139.906 602.079 139.367C601.47 138.828 601.165 138.148 601.165 137.328C601.165 136.32 601.537 135.547 602.281 135.008C603.031 134.469 604.112 134.196 605.525 134.19H606.694V133.646C606.694 133.206 606.579 132.854 606.351 132.591C606.128 132.327 605.774 132.195 605.287 132.195C604.86 132.195 604.523 132.298 604.277 132.503C604.036 132.708 603.916 132.989 603.916 133.347H601.376C601.376 132.796 601.546 132.286 601.886 131.817C602.226 131.349 602.706 130.982 603.327 130.719C603.948 130.449 604.646 130.314 605.419 130.314C606.591 130.314 607.52 130.61 608.205 131.202C608.897 131.788 609.242 132.614 609.242 133.681V137.803C609.248 138.705 609.374 139.388 609.62 139.851V140H607.054ZM604.953 138.233C605.328 138.233 605.674 138.151 605.99 137.987C606.307 137.817 606.541 137.592 606.694 137.311V135.676H605.744C604.473 135.676 603.796 136.115 603.714 136.994L603.705 137.144C603.705 137.46 603.817 137.721 604.039 137.926C604.262 138.131 604.567 138.233 604.953 138.233ZM613.434 130.49L613.513 131.554C614.187 130.728 615.098 130.314 616.246 130.314C617.471 130.314 618.312 130.798 618.769 131.765C619.437 130.798 620.389 130.314 621.625 130.314C622.657 130.314 623.424 130.616 623.928 131.22C624.432 131.817 624.684 132.72 624.684 133.927V140H622.135V133.936C622.135 133.396 622.03 133.004 621.819 132.758C621.608 132.506 621.236 132.38 620.702 132.38C619.941 132.38 619.413 132.743 619.12 133.47L619.129 140H616.589V133.944C616.589 133.394 616.481 132.995 616.264 132.749C616.047 132.503 615.678 132.38 615.157 132.38C614.436 132.38 613.914 132.679 613.592 133.276V140H611.052V130.49H613.434ZM630.879 140.176C629.485 140.176 628.348 139.748 627.469 138.893C626.596 138.037 626.16 136.897 626.16 135.474V135.228C626.16 134.272 626.344 133.42 626.713 132.67C627.083 131.914 627.604 131.334 628.278 130.93C628.958 130.52 629.731 130.314 630.598 130.314C631.899 130.314 632.921 130.725 633.666 131.545C634.416 132.365 634.791 133.528 634.791 135.034V136.071H628.735C628.817 136.692 629.063 137.19 629.473 137.565C629.889 137.94 630.414 138.128 631.046 138.128C632.025 138.128 632.79 137.773 633.34 137.064L634.588 138.462C634.208 139.001 633.692 139.423 633.042 139.728C632.391 140.026 631.67 140.176 630.879 140.176ZM630.589 132.371C630.085 132.371 629.675 132.541 629.359 132.881C629.048 133.221 628.849 133.707 628.761 134.34H632.294V134.138C632.283 133.575 632.13 133.142 631.837 132.837C631.544 132.526 631.128 132.371 630.589 132.371Z" fill="#222222"/>
<path d="M646.646 142.354C646.842 142.549 647.158 142.549 647.354 142.354L650.536 139.172C650.731 138.976 650.731 138.66 650.536 138.464C650.34 138.269 650.024 138.269 649.828 138.464L647 141.293L644.172 138.464C643.976 138.269 643.66 138.269 643.464 138.464C643.269 138.66 643.269 138.976 643.464 139.172L646.646 142.354ZM646.5 127V142H647.5V127H646.5Z" fill="black"/>
<path d="M655.256 208.296C653.809 207.88 652.754 207.37 652.092 206.767C651.436 206.157 651.107 205.407 651.107 204.517C651.107 203.509 651.509 202.677 652.312 202.021C653.12 201.358 654.169 201.027 655.458 201.027C656.337 201.027 657.119 201.197 657.805 201.537C658.496 201.877 659.029 202.346 659.404 202.943C659.785 203.541 659.976 204.194 659.976 204.903H658.279C658.279 204.13 658.033 203.523 657.541 203.084C657.049 202.639 656.354 202.416 655.458 202.416C654.626 202.416 653.976 202.601 653.507 202.97C653.044 203.333 652.812 203.84 652.812 204.49C652.812 205.012 653.032 205.454 653.472 205.817C653.917 206.175 654.67 206.503 655.73 206.802C656.797 207.101 657.629 207.432 658.227 207.795C658.83 208.152 659.275 208.571 659.562 209.052C659.855 209.532 660.002 210.098 660.002 210.748C660.002 211.785 659.598 212.617 658.789 213.244C657.98 213.865 656.899 214.176 655.546 214.176C654.667 214.176 653.847 214.009 653.085 213.675C652.323 213.335 651.734 212.872 651.318 212.286C650.908 211.7 650.703 211.035 650.703 210.291H652.399C652.399 211.064 652.684 211.677 653.252 212.128C653.826 212.573 654.591 212.796 655.546 212.796C656.437 212.796 657.119 212.614 657.594 212.251C658.068 211.888 658.306 211.393 658.306 210.766C658.306 210.139 658.086 209.655 657.646 209.315C657.207 208.97 656.41 208.63 655.256 208.296ZM663.403 205.642C664.123 204.757 665.061 204.314 666.215 204.314C668.225 204.314 669.238 205.448 669.256 207.716V214H667.63V207.707C667.624 207.021 667.466 206.515 667.155 206.187C666.851 205.858 666.373 205.694 665.723 205.694C665.195 205.694 664.733 205.835 664.334 206.116C663.936 206.397 663.625 206.767 663.403 207.224V214H661.777V200.5H663.403V205.642ZM671.119 209.157C671.119 208.226 671.3 207.388 671.663 206.644C672.033 205.899 672.542 205.325 673.193 204.921C673.849 204.517 674.596 204.314 675.434 204.314C676.729 204.314 677.775 204.763 678.572 205.659C679.374 206.556 679.776 207.748 679.776 209.236V209.351C679.776 210.276 679.597 211.108 679.24 211.847C678.888 212.579 678.381 213.15 677.719 213.561C677.063 213.971 676.307 214.176 675.452 214.176C674.162 214.176 673.117 213.728 672.314 212.831C671.517 211.935 671.119 210.748 671.119 209.271V209.157ZM672.753 209.351C672.753 210.405 672.996 211.252 673.483 211.891C673.975 212.529 674.631 212.849 675.452 212.849C676.278 212.849 676.934 212.526 677.42 211.882C677.907 211.231 678.15 210.323 678.15 209.157C678.15 208.114 677.901 207.271 677.403 206.626C676.911 205.976 676.254 205.65 675.434 205.65C674.631 205.65 673.984 205.97 673.492 206.608C672.999 207.247 672.753 208.161 672.753 209.351ZM686.27 205.949C686.024 205.908 685.757 205.888 685.47 205.888C684.404 205.888 683.68 206.342 683.299 207.25V214H681.673V204.49H683.255L683.282 205.589C683.815 204.739 684.571 204.314 685.549 204.314C685.866 204.314 686.106 204.355 686.27 204.438V205.949ZM690.277 202.188V204.49H692.052V205.747H690.277V211.645C690.277 212.025 690.356 212.312 690.514 212.506C690.673 212.693 690.942 212.787 691.323 212.787C691.51 212.787 691.768 212.752 692.096 212.682V214C691.669 214.117 691.253 214.176 690.848 214.176C690.122 214.176 689.574 213.956 689.205 213.517C688.836 213.077 688.651 212.453 688.651 211.645V205.747H686.92V204.49H688.651V202.188H690.277ZM702.167 208.296C700.72 207.88 699.665 207.37 699.003 206.767C698.347 206.157 698.019 205.407 698.019 204.517C698.019 203.509 698.42 202.677 699.223 202.021C700.031 201.358 701.08 201.027 702.369 201.027C703.248 201.027 704.03 201.197 704.716 201.537C705.407 201.877 705.94 202.346 706.315 202.943C706.696 203.541 706.887 204.194 706.887 204.903H705.19C705.19 204.13 704.944 203.523 704.452 203.084C703.96 202.639 703.266 202.416 702.369 202.416C701.537 202.416 700.887 202.601 700.418 202.97C699.955 203.333 699.724 203.84 699.724 204.49C699.724 205.012 699.943 205.454 700.383 205.817C700.828 206.175 701.581 206.503 702.642 206.802C703.708 207.101 704.54 207.432 705.138 207.795C705.741 208.152 706.187 208.571 706.474 209.052C706.767 209.532 706.913 210.098 706.913 210.748C706.913 211.785 706.509 212.617 705.7 213.244C704.892 213.865 703.811 214.176 702.457 214.176C701.578 214.176 700.758 214.009 699.996 213.675C699.234 213.335 698.646 212.872 698.23 212.286C697.819 211.7 697.614 211.035 697.614 210.291H699.311C699.311 211.064 699.595 211.677 700.163 212.128C700.737 212.573 701.502 212.796 702.457 212.796C703.348 212.796 704.03 212.614 704.505 212.251C704.98 211.888 705.217 211.393 705.217 210.766C705.217 210.139 704.997 209.655 704.558 209.315C704.118 208.97 703.321 208.63 702.167 208.296ZM710.894 202.188V204.49H712.669V205.747H710.894V211.645C710.894 212.025 710.973 212.312 711.131 212.506C711.289 212.693 711.559 212.787 711.94 212.787C712.127 212.787 712.385 212.752 712.713 212.682V214C712.285 214.117 711.869 214.176 711.465 214.176C710.739 214.176 710.191 213.956 709.822 213.517C709.452 213.077 709.268 212.453 709.268 211.645V205.747H707.536V204.49H709.268V202.188H710.894ZM713.829 209.157C713.829 208.226 714.01 207.388 714.373 206.644C714.743 205.899 715.252 205.325 715.903 204.921C716.559 204.517 717.306 204.314 718.144 204.314C719.439 204.314 720.485 204.763 721.282 205.659C722.084 206.556 722.486 207.748 722.486 209.236V209.351C722.486 210.276 722.307 211.108 721.95 211.847C721.598 212.579 721.091 213.15 720.429 213.561C719.773 213.971 719.017 214.176 718.162 214.176C716.872 214.176 715.827 213.728 715.024 212.831C714.227 211.935 713.829 210.748 713.829 209.271V209.157ZM715.463 209.351C715.463 210.405 715.706 211.252 716.193 211.891C716.685 212.529 717.341 212.849 718.162 212.849C718.988 212.849 719.644 212.526 720.13 211.882C720.617 211.231 720.86 210.323 720.86 209.157C720.86 208.114 720.611 207.271 720.113 206.626C719.621 205.976 718.964 205.65 718.144 205.65C717.341 205.65 716.694 205.97 716.202 206.608C715.709 207.247 715.463 208.161 715.463 209.351ZM728.98 205.949C728.734 205.908 728.467 205.888 728.18 205.888C727.114 205.888 726.39 206.342 726.009 207.25V214H724.383V204.49H725.965L725.992 205.589C726.525 204.739 727.281 204.314 728.259 204.314C728.576 204.314 728.816 204.355 728.98 204.438V205.949ZM733.611 211.618L735.826 204.49H737.566L733.743 215.468C733.151 217.05 732.211 217.841 730.922 217.841L730.614 217.814L730.008 217.7V216.382L730.447 216.417C730.998 216.417 731.426 216.306 731.73 216.083C732.041 215.86 732.296 215.453 732.495 214.861L732.855 213.895L729.463 204.49H731.238L733.611 211.618ZM750.52 208.349H745.15V214H743.462V201.203H751.39V202.592H745.15V206.969H750.52V208.349ZM754.782 214H753.156V204.49H754.782V214ZM753.024 201.968C753.024 201.704 753.103 201.481 753.261 201.3C753.425 201.118 753.665 201.027 753.982 201.027C754.298 201.027 754.538 201.118 754.702 201.3C754.867 201.481 754.949 201.704 754.949 201.968C754.949 202.231 754.867 202.451 754.702 202.627C754.538 202.803 754.298 202.891 753.982 202.891C753.665 202.891 753.425 202.803 753.261 202.627C753.103 202.451 753.024 202.231 753.024 201.968ZM761.847 205.949C761.601 205.908 761.334 205.888 761.047 205.888C759.981 205.888 759.257 206.342 758.876 207.25V214H757.25V204.49H758.832L758.859 205.589C759.392 204.739 760.148 204.314 761.126 204.314C761.443 204.314 761.683 204.355 761.847 204.438V205.949ZM768.746 211.478C768.746 211.038 768.579 210.698 768.245 210.458C767.917 210.212 767.34 210.001 766.513 209.825C765.693 209.649 765.04 209.438 764.553 209.192C764.073 208.946 763.715 208.653 763.481 208.313C763.253 207.974 763.138 207.569 763.138 207.101C763.138 206.321 763.466 205.662 764.123 205.123C764.785 204.584 765.629 204.314 766.654 204.314C767.732 204.314 768.605 204.593 769.273 205.149C769.947 205.706 770.284 206.418 770.284 207.285H768.649C768.649 206.84 768.459 206.456 768.078 206.134C767.703 205.812 767.228 205.65 766.654 205.65C766.062 205.65 765.599 205.779 765.265 206.037C764.931 206.295 764.764 206.632 764.764 207.048C764.764 207.44 764.92 207.736 765.23 207.936C765.541 208.135 766.1 208.325 766.909 208.507C767.723 208.688 768.382 208.905 768.886 209.157C769.39 209.409 769.762 209.714 770.003 210.071C770.249 210.423 770.372 210.854 770.372 211.363C770.372 212.213 770.032 212.896 769.352 213.411C768.673 213.921 767.791 214.176 766.707 214.176C765.945 214.176 765.271 214.041 764.685 213.771C764.099 213.502 763.639 213.127 763.305 212.646C762.977 212.16 762.813 211.636 762.813 211.073H764.439C764.468 211.618 764.685 212.052 765.09 212.374C765.5 212.69 766.039 212.849 766.707 212.849C767.322 212.849 767.814 212.726 768.183 212.479C768.558 212.228 768.746 211.894 768.746 211.478ZM774.555 202.188V204.49H776.33V205.747H774.555V211.645C774.555 212.025 774.634 212.312 774.792 212.506C774.95 212.693 775.22 212.787 775.6 212.787C775.788 212.787 776.046 212.752 776.374 212.682V214C775.946 214.117 775.53 214.176 775.126 214.176C774.399 214.176 773.851 213.956 773.482 213.517C773.113 213.077 772.929 212.453 772.929 211.645V205.747H771.197V204.49H772.929V202.188H774.555ZM782.674 214V201.203H786.286C787.4 201.203 788.384 201.449 789.239 201.941C790.095 202.434 790.754 203.134 791.217 204.042C791.686 204.95 791.923 205.993 791.929 207.171V207.988C791.929 209.195 791.695 210.253 791.226 211.161C790.763 212.069 790.098 212.767 789.231 213.253C788.369 213.739 787.364 213.988 786.216 214H782.674ZM784.362 202.592V212.62H786.137C787.438 212.62 788.448 212.216 789.169 211.407C789.896 210.599 790.259 209.447 790.259 207.953V207.206C790.259 205.753 789.916 204.625 789.231 203.822C788.551 203.014 787.584 202.604 786.33 202.592H784.362ZM798.687 205.949C798.441 205.908 798.174 205.888 797.887 205.888C796.821 205.888 796.097 206.342 795.716 207.25V214H794.09V204.49H795.672L795.699 205.589C796.232 204.739 796.988 204.314 797.966 204.314C798.283 204.314 798.523 204.355 798.687 204.438V205.949ZM805.568 214C805.474 213.812 805.398 213.479 805.339 212.998C804.584 213.783 803.681 214.176 802.632 214.176C801.695 214.176 800.924 213.912 800.321 213.385C799.723 212.852 799.424 212.178 799.424 211.363C799.424 210.373 799.799 209.605 800.549 209.061C801.305 208.51 802.366 208.234 803.731 208.234H805.313V207.487C805.313 206.919 805.143 206.468 804.803 206.134C804.463 205.794 803.962 205.624 803.3 205.624C802.72 205.624 802.234 205.771 801.841 206.063C801.449 206.356 801.252 206.711 801.252 207.127H799.618C799.618 206.652 799.785 206.195 800.119 205.756C800.459 205.311 800.916 204.959 801.49 204.701C802.07 204.443 802.706 204.314 803.397 204.314C804.493 204.314 805.351 204.59 805.972 205.141C806.593 205.686 806.916 206.438 806.939 207.399V211.776C806.939 212.649 807.05 213.344 807.273 213.859V214H805.568ZM802.87 212.761C803.379 212.761 803.863 212.629 804.32 212.365C804.777 212.102 805.108 211.759 805.313 211.337V209.386H804.039C802.046 209.386 801.05 209.969 801.05 211.135C801.05 211.645 801.22 212.043 801.56 212.33C801.9 212.617 802.336 212.761 802.87 212.761ZM810.146 214V205.747H808.643V204.49H810.146V203.515C810.146 202.495 810.419 201.707 810.964 201.15C811.509 200.594 812.279 200.315 813.275 200.315C813.65 200.315 814.022 200.365 814.391 200.465L814.303 201.783C814.028 201.73 813.735 201.704 813.425 201.704C812.897 201.704 812.49 201.859 812.203 202.17C811.916 202.475 811.772 202.914 811.772 203.488V204.49H813.802V205.747H811.772V214H810.146ZM817.669 202.188V204.49H819.444V205.747H817.669V211.645C817.669 212.025 817.748 212.312 817.906 212.506C818.064 212.693 818.334 212.787 818.715 212.787C818.902 212.787 819.16 212.752 819.488 212.682V214C819.06 214.117 818.644 214.176 818.24 214.176C817.514 214.176 816.966 213.956 816.597 213.517C816.227 213.077 816.043 212.453 816.043 211.645V205.747H814.311V204.49H816.043V202.188H817.669Z" fill="#222222"/>
<path d="M663.441 308.383C662.984 308.963 662.313 309.411 661.429 309.728C660.55 310.038 659.557 310.185 658.449 310.167C657.576 310.161 656.809 309.971 656.146 309.596C655.484 309.215 654.963 308.67 654.582 307.961C654.201 307.252 653.984 306.443 653.932 305.535C653.873 304.691 653.961 303.701 654.195 302.564C654.436 301.422 654.843 300.423 655.417 299.567C655.997 298.706 656.691 298.064 657.5 297.643C658.309 297.215 659.205 297.01 660.189 297.027C661.525 297.051 662.571 297.429 663.327 298.161C664.083 298.888 664.514 299.931 664.619 301.29L662.141 301.281C662.076 300.566 661.886 300.039 661.569 299.699C661.253 299.359 660.781 299.178 660.154 299.154C659.07 299.119 658.215 299.597 657.588 300.587C656.967 301.571 656.612 303.001 656.524 304.876C656.466 305.878 656.618 306.654 656.981 307.205C657.351 307.756 657.91 308.037 658.66 308.049C659.533 308.072 660.277 307.864 660.893 307.425L661.323 305.219H658.985L659.328 303.276H664.215L663.441 308.383ZM671.386 302.872C671.046 302.813 670.768 302.784 670.551 302.784C669.666 302.761 668.966 303.092 668.45 303.777L667.352 310H664.873L666.526 300.49L668.855 300.481L668.626 301.642C669.224 300.745 669.962 300.297 670.841 300.297C671.087 300.297 671.374 300.338 671.702 300.42L671.386 302.872ZM675.542 310.176C674.71 310.17 673.972 309.968 673.327 309.569C672.689 309.165 672.211 308.614 671.895 307.917C671.578 307.214 671.455 306.44 671.526 305.597L671.552 305.245C671.64 304.319 671.91 303.47 672.361 302.696C672.812 301.923 673.392 301.328 674.101 300.912C674.81 300.49 675.595 300.291 676.456 300.314C677.681 300.338 678.607 300.789 679.234 301.668C679.867 302.541 680.107 303.648 679.954 304.99L679.814 306.071H673.987C673.963 306.687 674.113 307.179 674.435 307.548C674.757 307.917 675.197 308.107 675.753 308.119C676.656 308.143 677.447 307.794 678.126 307.073L679.26 308.479C678.903 309.019 678.387 309.44 677.713 309.745C677.039 310.044 676.316 310.188 675.542 310.176ZM676.333 302.362C675.876 302.351 675.469 302.494 675.112 302.793C674.76 303.092 674.444 303.61 674.162 304.349H677.573L677.625 304.12C677.661 303.886 677.663 303.663 677.634 303.452C677.576 303.112 677.432 302.849 677.203 302.661C676.975 302.468 676.685 302.368 676.333 302.362ZM685.913 310C685.836 309.76 685.804 309.473 685.816 309.139C685.101 309.854 684.293 310.199 683.39 310.176C682.558 310.164 681.867 309.895 681.316 309.367C680.771 308.834 680.516 308.178 680.551 307.398C680.592 306.361 681.026 305.567 681.852 305.017C682.684 304.46 683.797 304.182 685.192 304.182L686.352 304.199L686.475 303.628C686.51 303.435 686.519 303.25 686.501 303.074C686.472 302.799 686.367 302.585 686.185 302.433C686.009 302.274 685.775 302.192 685.482 302.187C685.095 302.175 684.767 302.271 684.498 302.477C684.228 302.676 684.055 302.966 683.979 303.347L681.492 303.355C681.533 302.447 681.949 301.712 682.74 301.149C683.537 300.581 684.518 300.303 685.684 300.314C686.762 300.338 687.606 300.66 688.215 301.281C688.825 301.896 689.08 302.69 688.98 303.663L688.251 308.216L688.207 308.778C688.195 309.194 688.245 309.546 688.356 309.833L688.347 310H685.913ZM684.005 308.251C684.72 308.274 685.344 307.964 685.877 307.319L686.185 305.676L685.324 305.667C684.41 305.69 683.751 305.969 683.346 306.502C683.2 306.695 683.109 306.933 683.074 307.214C683.027 307.53 683.091 307.782 683.267 307.97C683.449 308.151 683.695 308.245 684.005 308.251ZM694.754 298.152L694.341 300.49H695.923L695.597 302.354H694.015L693.207 307.117C693.172 307.416 693.195 307.645 693.277 307.803C693.359 307.961 693.558 308.046 693.875 308.058C693.968 308.063 694.22 308.049 694.631 308.014L694.455 309.956C694.015 310.103 693.541 310.17 693.031 310.158C692.217 310.146 691.61 309.892 691.212 309.394C690.813 308.896 690.649 308.222 690.719 307.372L691.537 302.354H690.192L690.517 300.49H691.862L692.266 298.152H694.754ZM707.566 307.363H703.102L701.783 310H698.944L705.782 297.203H708.164L710.599 310H707.971L707.566 307.363ZM704.156 305.228H707.241L706.521 300.464L704.156 305.228ZM715.124 300.481L714.922 301.562C715.69 300.707 716.618 300.291 717.708 300.314C718.294 300.326 718.781 300.461 719.167 300.719C719.554 300.977 719.815 301.325 719.949 301.765C720.787 300.774 721.772 300.291 722.903 300.314C723.776 300.332 724.432 300.631 724.871 301.211C725.317 301.791 725.504 302.629 725.434 303.725L725.416 303.944L724.406 310H721.918L722.929 303.927C722.952 303.71 722.961 303.508 722.955 303.32C722.914 302.705 722.563 302.389 721.901 302.371C721.221 302.371 720.638 302.734 720.152 303.461L720.125 303.663L719.018 310H716.539L717.55 303.944C717.573 303.728 717.582 303.525 717.576 303.338C717.535 302.717 717.187 302.397 716.531 302.38C715.904 302.362 715.338 302.658 714.834 303.268L713.648 310H711.169L712.813 300.49L715.124 300.481ZM730.75 310.176C729.918 310.17 729.18 309.968 728.536 309.569C727.897 309.165 727.419 308.614 727.103 307.917C726.787 307.214 726.663 306.44 726.734 305.597L726.76 305.245C726.848 304.319 727.118 303.47 727.569 302.696C728.02 301.923 728.6 301.328 729.309 300.912C730.018 300.49 730.803 300.291 731.664 300.314C732.889 300.338 733.815 300.789 734.442 301.668C735.075 302.541 735.315 303.648 735.163 304.99L735.022 306.071H729.195C729.171 306.687 729.321 307.179 729.643 307.548C729.965 307.917 730.405 308.107 730.961 308.119C731.864 308.143 732.655 307.794 733.334 307.073L734.468 308.479C734.111 309.019 733.595 309.44 732.921 309.745C732.247 310.044 731.524 310.188 730.75 310.176ZM731.541 302.362C731.084 302.351 730.677 302.494 730.32 302.793C729.968 303.092 729.652 303.61 729.371 304.349H732.781L732.833 304.12C732.869 303.886 732.871 303.663 732.842 303.452C732.784 303.112 732.64 302.849 732.412 302.661C732.183 302.468 731.893 302.368 731.541 302.362ZM742.131 302.872C741.792 302.813 741.513 302.784 741.296 302.784C740.412 302.761 739.712 303.092 739.196 303.777L738.097 310H735.619L737.271 300.49L739.6 300.481L739.372 301.642C739.969 300.745 740.708 300.297 741.587 300.297C741.833 300.297 742.12 300.338 742.448 300.42L742.131 302.872ZM744.565 310H742.069L743.721 300.49H746.218L744.565 310ZM744.011 298.073C744 297.681 744.129 297.355 744.398 297.098C744.668 296.84 744.993 296.711 745.374 296.711C745.749 296.699 746.074 296.813 746.349 297.054C746.625 297.294 746.768 297.604 746.78 297.985C746.792 298.349 746.669 298.665 746.411 298.935C746.159 299.204 745.828 299.345 745.418 299.356C745.049 299.368 744.723 299.257 744.442 299.022C744.167 298.788 744.023 298.472 744.011 298.073ZM750.699 308.137C751.156 308.148 751.537 308.025 751.842 307.768C752.146 307.504 752.346 307.155 752.439 306.722L754.769 306.713C754.727 307.381 754.517 307.981 754.136 308.515C753.761 309.048 753.257 309.464 752.624 309.763C751.997 310.062 751.335 310.202 750.638 310.185C749.483 310.167 748.569 309.769 747.895 308.989C747.222 308.21 746.896 307.173 746.92 305.878L746.946 305.395L746.955 305.298C747.113 303.751 747.635 302.526 748.519 301.624C749.404 300.716 750.497 300.279 751.798 300.314C752.87 300.338 753.72 300.689 754.347 301.369C754.979 302.043 755.29 302.934 755.278 304.041H752.967C752.967 303.531 752.855 303.13 752.633 302.837C752.41 302.544 752.076 302.386 751.631 302.362C750.447 302.327 749.729 303.191 749.477 304.955C749.39 305.594 749.357 306.133 749.381 306.572C749.439 307.598 749.879 308.119 750.699 308.137ZM761.087 310C761.011 309.76 760.979 309.473 760.99 309.139C760.276 309.854 759.467 310.199 758.565 310.176C757.733 310.164 757.041 309.895 756.49 309.367C755.945 308.834 755.691 308.178 755.726 307.398C755.767 306.361 756.2 305.567 757.026 305.017C757.859 304.46 758.972 304.182 760.366 304.182L761.526 304.199L761.65 303.628C761.685 303.435 761.693 303.25 761.676 303.074C761.647 302.799 761.541 302.585 761.359 302.433C761.184 302.274 760.949 302.192 760.656 302.187C760.27 302.175 759.942 302.271 759.672 302.477C759.402 302.676 759.23 302.966 759.153 303.347L756.666 303.355C756.707 302.447 757.123 301.712 757.914 301.149C758.711 300.581 759.693 300.303 760.859 300.314C761.937 300.338 762.78 300.66 763.39 301.281C763.999 301.896 764.254 302.69 764.154 303.663L763.425 308.216L763.381 308.778C763.369 309.194 763.419 309.546 763.53 309.833L763.522 310H761.087ZM759.18 308.251C759.895 308.274 760.519 307.964 761.052 307.319L761.359 305.676L760.498 305.667C759.584 305.69 758.925 305.969 758.521 306.502C758.374 306.695 758.283 306.933 758.248 307.214C758.201 307.53 758.266 307.782 758.442 307.97C758.623 308.151 758.869 308.245 759.18 308.251ZM768.821 300.481L768.61 301.606C769.371 300.722 770.294 300.291 771.378 300.314C772.275 300.332 772.937 300.66 773.365 301.299C773.792 301.938 773.948 302.822 773.83 303.953L772.828 310H770.35L771.369 303.927C771.399 303.698 771.405 303.49 771.387 303.303C771.311 302.705 770.936 302.397 770.262 302.38C769.612 302.356 769.029 302.658 768.513 303.285L767.326 310H764.848L766.5 300.49L768.821 300.481ZM789.218 310H786.722L783.163 301.466L781.677 310H779.102L781.326 297.203H783.813L787.382 305.755L788.867 297.203H791.433L789.218 310ZM796.671 300.314C797.509 300.326 798.229 300.543 798.833 300.965C799.442 301.381 799.888 301.958 800.169 302.696C800.456 303.429 800.558 304.243 800.476 305.14C800.342 306.651 799.814 307.876 798.894 308.813C797.98 309.745 796.849 310.199 795.502 310.176C794.676 310.164 793.961 309.953 793.357 309.543C792.754 309.127 792.308 308.553 792.021 307.82C791.734 307.088 791.632 306.279 791.714 305.395C791.866 303.824 792.399 302.576 793.313 301.65C794.227 300.725 795.347 300.279 796.671 300.314ZM794.166 306.3C794.178 306.862 794.309 307.308 794.561 307.636C794.813 307.958 795.168 308.125 795.625 308.137C796.387 308.16 796.984 307.812 797.418 307.091C797.851 306.364 798.054 305.412 798.024 304.234C798.001 303.672 797.863 303.224 797.611 302.89C797.365 302.55 797.011 302.374 796.548 302.362C795.809 302.339 795.218 302.688 794.772 303.408C794.333 304.123 794.131 305.087 794.166 306.3ZM804.914 306.862L807.621 300.49H810.293L805.696 310H803.323L801.697 300.49H804.211L804.914 306.862ZM814.08 310.176C813.248 310.17 812.51 309.968 811.865 309.569C811.227 309.165 810.749 308.614 810.433 307.917C810.116 307.214 809.993 306.44 810.064 305.597L810.09 305.245C810.178 304.319 810.447 303.47 810.899 302.696C811.35 301.923 811.93 301.328 812.639 300.912C813.348 300.49 814.133 300.291 814.994 300.314C816.219 300.338 817.145 300.789 817.772 301.668C818.404 302.541 818.645 303.648 818.492 304.99L818.352 306.071H812.525C812.501 306.687 812.651 307.179 812.973 307.548C813.295 307.917 813.735 308.107 814.291 308.119C815.194 308.143 815.985 307.794 816.664 307.073L817.798 308.479C817.441 309.019 816.925 309.44 816.251 309.745C815.577 310.044 814.854 310.188 814.08 310.176ZM814.871 302.362C814.414 302.351 814.007 302.494 813.65 302.793C813.298 303.092 812.982 303.61 812.7 304.349H816.111L816.163 304.12C816.198 303.886 816.201 303.663 816.172 303.452C816.113 303.112 815.97 302.849 815.741 302.661C815.513 302.468 815.223 302.368 814.871 302.362ZM821.568 310H819.072L821.418 296.5H823.906L821.568 310ZM831.366 305.491L830.575 310H828L830.223 297.203L834.706 297.212C836.089 297.212 837.176 297.596 837.967 298.363C838.758 299.131 839.103 300.133 839.004 301.369C838.91 302.623 838.385 303.625 837.43 304.375C836.481 305.125 835.268 305.5 833.792 305.5L831.366 305.491ZM831.726 303.355L833.871 303.373C834.562 303.373 835.136 303.194 835.593 302.837C836.051 302.479 836.323 301.996 836.411 301.387C836.499 300.777 836.399 300.291 836.112 299.928C835.831 299.564 835.412 299.371 834.855 299.348L832.429 299.339L831.726 303.355ZM845.568 302.872C845.228 302.813 844.95 302.784 844.733 302.784C843.849 302.761 843.148 303.092 842.633 303.777L841.534 310H839.056L840.708 300.49L843.037 300.481L842.808 301.642C843.406 300.745 844.144 300.297 845.023 300.297C845.269 300.297 845.557 300.338 845.885 300.42L845.568 302.872ZM850.507 300.314C851.345 300.326 852.065 300.543 852.669 300.965C853.278 301.381 853.724 301.958 854.005 302.696C854.292 303.429 854.395 304.243 854.313 305.14C854.178 306.651 853.65 307.876 852.731 308.813C851.816 309.745 850.686 310.199 849.338 310.176C848.512 310.164 847.797 309.953 847.193 309.543C846.59 309.127 846.145 308.553 845.857 307.82C845.57 307.088 845.468 306.279 845.55 305.395C845.702 303.824 846.235 302.576 847.149 301.65C848.064 300.725 849.183 300.279 850.507 300.314ZM848.002 306.3C848.014 306.862 848.146 307.308 848.398 307.636C848.649 307.958 849.004 308.125 849.461 308.137C850.223 308.16 850.82 307.812 851.254 307.091C851.688 306.364 851.89 305.412 851.86 304.234C851.837 303.672 851.699 303.224 851.447 302.89C851.201 302.55 850.847 302.374 850.384 302.362C849.646 302.339 849.054 302.688 848.608 303.408C848.169 304.123 847.967 305.087 848.002 306.3ZM859.172 300.49L857.467 310.519C857.332 311.579 856.948 312.405 856.316 312.997C855.689 313.589 854.877 313.879 853.881 313.867C853.483 313.855 853.043 313.8 852.563 313.7L852.765 311.679C853.058 311.743 853.313 311.781 853.53 311.793C854.309 311.805 854.783 311.383 854.953 310.527L856.676 300.49H859.172ZM856.913 298.073C856.902 297.687 857.025 297.367 857.282 297.115C857.54 296.857 857.871 296.723 858.276 296.711C858.68 296.711 859.011 296.831 859.269 297.071C859.532 297.312 859.67 297.616 859.682 297.985C859.694 298.378 859.571 298.703 859.313 298.961C859.055 299.213 858.724 299.345 858.32 299.356C857.95 299.368 857.625 299.257 857.344 299.022C857.069 298.788 856.925 298.472 856.913 298.073ZM863.891 310.176C863.059 310.17 862.321 309.968 861.676 309.569C861.038 309.165 860.56 308.614 860.244 307.917C859.927 307.214 859.804 306.44 859.874 305.597L859.901 305.245C859.989 304.319 860.258 303.47 860.709 302.696C861.161 301.923 861.741 301.328 862.45 300.912C863.159 300.49 863.944 300.291 864.805 300.314C866.03 300.338 866.955 300.789 867.582 301.668C868.215 302.541 868.455 303.648 868.303 304.99L868.163 306.071H862.335C862.312 306.687 862.461 307.179 862.784 307.548C863.106 307.917 863.545 308.107 864.102 308.119C865.004 308.143 865.795 307.794 866.475 307.073L867.609 308.479C867.251 309.019 866.736 309.44 866.062 309.745C865.388 310.044 864.664 310.188 863.891 310.176ZM864.682 302.362C864.225 302.351 863.818 302.494 863.46 302.793C863.109 303.092 862.792 303.61 862.511 304.349H865.921L865.974 304.12C866.009 303.886 866.012 303.663 865.983 303.452C865.924 303.112 865.781 302.849 865.552 302.661C865.324 302.468 865.034 302.368 864.682 302.362ZM872.925 308.137C873.382 308.148 873.763 308.025 874.068 307.768C874.373 307.504 874.572 307.155 874.666 306.722L876.995 306.713C876.954 307.381 876.743 307.981 876.362 308.515C875.987 309.048 875.483 309.464 874.85 309.763C874.223 310.062 873.561 310.202 872.864 310.185C871.71 310.167 870.796 309.769 870.122 308.989C869.448 308.21 869.123 307.173 869.146 305.878L869.172 305.395L869.181 305.298C869.339 303.751 869.861 302.526 870.746 301.624C871.63 300.716 872.723 300.279 874.024 300.314C875.096 300.338 875.946 300.689 876.573 301.369C877.206 302.043 877.516 302.934 877.504 304.041H875.193C875.193 303.531 875.082 303.13 874.859 302.837C874.636 302.544 874.302 302.386 873.857 302.362C872.673 302.327 871.956 303.191 871.704 304.955C871.616 305.594 871.584 306.133 871.607 306.572C871.666 307.598 872.105 308.119 872.925 308.137ZM882.839 298.152L882.426 300.49H884.008L883.682 302.354H882.1L881.292 307.117C881.257 307.416 881.28 307.645 881.362 307.803C881.444 307.961 881.643 308.046 881.96 308.058C882.053 308.063 882.305 308.049 882.716 308.014L882.54 309.956C882.1 310.103 881.626 310.17 881.116 310.158C880.302 310.146 879.695 309.892 879.297 309.394C878.898 308.896 878.734 308.222 878.804 307.372L879.622 302.354H878.277L878.602 300.49H879.947L880.351 298.152H882.839Z" fill="#222222"/>
<path d="M610.656 296.25H601.281L598.156 293.125H590.344C589.049 293.125 588 294.174 588 295.469V309.531C588 310.826 589.049 311.875 590.344 311.875H610.656C611.951 311.875 613 310.826 613 309.531V298.594C613 297.299 611.951 296.25 610.656 296.25Z" fill="#A9CFB5"/>
<g clip-path="url(#clip1)">
<rect width="20.2703" height="25" transform="translate(588 195)" fill="white"/>
<path d="M599.824 201.641V195H589.267C588.565 195 588 195.522 588 196.172V218.828C588 219.478 588.565 220 589.267 220H607.003C607.705 220 608.27 219.478 608.27 218.828V202.812H601.091C600.394 202.812 599.824 202.285 599.824 201.641ZM608.27 200.952V201.25H601.514V195H601.836C602.173 195 602.495 195.122 602.733 195.342L607.901 200.127C608.138 200.347 608.27 200.645 608.27 200.952Z" fill="#A9CFB5"/>
</g>
<defs>
<clipPath id="clip0">
<rect width="20.2703" height="25" fill="white" transform="translate(55 200)"/>
</clipPath>
<clipPath id="clip1">
<rect width="20.2703" height="25" fill="white" transform="translate(588 195)"/>
</clipPath>
</defs>
</svg>
