<svg id="Layer_1" data-name="Layer 1" xmlns="http://www.w3.org/2000/svg" viewBox="0 0 500 500"><defs><style>.cls-1{fill:none;}</style></defs><title>lines</title><rect class="cls-1" width="500" height="500"/><polygon class="cls-1" points="208.31 292.02 167.4 332.94 208.31 373.86 249.17 332.88 208.31 292.02"/><polygon class="cls-1" points="209.02 291.31 250.58 332.87 209.02 374.56 250.13 415.67 332.54 333.25 249.81 250.52 209.02 291.31"/><rect class="cls-1" x="116.91" y="212.06" width="57.87" height="116.82" transform="translate(-148.53 182.35) rotate(-45)"/><polygon class="cls-1" points="333.47 249.32 374.79 208 333.77 166.98 333.76 166.99 333.05 166.29 333.07 166.27 291.75 124.96 250.43 166.28 333.47 249.32"/><polygon class="cls-1" points="416.7 248.5 499.29 166.5 458.44 125.77 376.21 208 416.7 248.5"/><rect class="cls-1" x="220.76" y="95.67" width="58.44" height="57.69" transform="translate(-14.83 213.24) rotate(-45)"/><polygon class="cls-1" points="457.73 125.06 416.65 84.11 334.48 166.27 375.5 207.29 457.73 125.06"/><rect class="cls-1" x="296.1" y="74.61" width="116.2" height="58.43" transform="translate(30.33 280.87) rotate(-45)"/><rect class="cls-1" x="96.15" y="137.65" width="57.69" height="57.69" transform="translate(-81.12 137.16) rotate(-45)"/><polygon class="cls-1" points="500 331.79 500 167.2 417.41 249.21 500 331.79"/><polygon class="cls-1" points="414.65 0.65 415.35 1.35 375.33 41.38 416.97 83.02 458.44 124.36 499.77 83.02 500 83.25 500 0 333.96 0 374.63 40.67 414.65 0.65"/><polygon class="cls-1" points="0 333.21 0 499.29 82.79 416.5 0 333.21"/><polygon class="cls-1" points="250.25 82.04 250.6 82.39 291.75 123.54 373.92 41.38 333.02 0.48 333.5 0 167.21 0 250.25 82.05 250.25 82.04"/><polygon class="cls-1" points="3.52 170.48 4.23 169.77 83.38 248.92 124.29 208 82.79 166.5 124.29 125 0 0.71 0 332.29 82.67 249.63 3.52 170.48"/><polygon class="cls-1" points="165.79 0 0.71 0 83.25 82.54 165.79 0"/><polygon class="cls-1" points="416.5 415.79 499.54 332.75 416.7 249.91 333.96 333.25 416.5 415.79"/><polygon class="cls-1" points="500 165.79 500 84.21 459.14 125.06 500 165.79"/><rect class="cls-1" x="275.03" y="358.07" width="116.56" height="116.73" transform="translate(-196.84 357.66) rotate(-45)"/><polygon class="cls-1" points="499.85 499.15 499.15 499.85 416.5 417.21 333.71 500 500 500 500 333.71 417.21 416.5 499.85 499.15"/><polygon class="cls-1" points="167.21 500 333.04 500 250.13 417.08 167.21 500"/><polygon class="cls-1" points="0.71 500 165.79 500 83.5 417.21 0.71 500"/><polygon class="cls-1" points="249.54 82.75 166.5 0.7 125.68 41.53 208.22 124.07 249.54 82.75"/><rect class="cls-1" x="116.73" y="45.65" width="58" height="116.73" transform="translate(-30.87 133.52) rotate(-45)"/><polygon class="cls-1" points="83.38 250.33 0.96 332.75 124.94 457.48 207.61 374.56 83.38 250.33"/><polygon class="cls-1" points="125.64 458.19 166.5 499.29 249.42 416.38 208.31 375.27 125.64 458.19"/><polygon class="cls-1" points="249.81 249.1 333.25 332.54 416 249.2 375.5 208.71 333.47 250.74 208.22 125.49 167.21 166.5 166.85 166.85 125.71 208 208.31 290.61 249.81 249.1"/><polygon points="124.65 124.65 125.35 125.35 125 125.71 165.79 166.5 125 207.29 125.71 208 166.85 166.85 166.15 166.15 166.5 165.79 83.96 83.25 83.6 83.6 82.9 82.9 83.25 82.54 0.71 0 0 0 0 0.71 124.29 125 124.65 124.65"/><polygon points="166.5 499.29 125.64 458.19 125.29 458.54 124.58 457.83 124.94 457.48 0.96 332.75 83.38 250.33 82.67 249.63 0 332.29 0 333.21 82.79 416.5 83.15 416.15 83.85 416.85 83.5 417.21 165.79 500 166.5 500 166.15 499.65 166.5 499.29"/><rect x="75.25" y="228.31" width="57.87" height="1" transform="translate(-131.28 140.69) rotate(-45)"/><polygon points="333.47 249.32 250.43 166.28 250.33 166.38 249.62 165.67 249.72 165.57 208.93 124.78 208.22 125.49 333.47 250.74 375.5 208.71 374.79 208 333.47 249.32"/><rect x="166.09" y="24.79" width="1" height="116.73" transform="translate(-10.01 142.16) rotate(-45)"/><rect x="358.82" y="166.03" width="116.29" height="1" transform="translate(4.37 343.62) rotate(-45)"/><polygon points="458.44 124.36 459.14 125.06 500 84.21 500 83.25 499.77 83.02 458.44 124.36"/><polygon points="209.02 291.31 208.31 292.02 249.17 332.88 208.31 373.86 209.02 374.56 250.58 332.87 209.02 291.31"/><polygon points="84.21 166.5 125 125.71 124.29 125 82.79 166.5 124.29 208 125 207.29 84.21 166.5"/><polygon points="207.61 374.56 124.94 457.48 125.64 458.19 208.31 375.27 207.61 374.56"/><rect x="166.16" y="191.25" width="1" height="116.82" transform="translate(-127.72 190.97) rotate(-45)"/><rect x="124.57" y="124.68" width="0.5" height="1" transform="translate(-51.95 124.93) rotate(-45)"/><rect x="124.5" y="207.5" width="1" height="1" transform="translate(-110.47 149.31) rotate(-45)"/><rect x="124.86" y="457.51" width="0.5" height="1" transform="translate(-287.55 223.2) rotate(-45.08)"/><polygon points="208.31 373.86 167.4 332.94 167.04 333.29 166.33 332.58 166.69 332.23 84.08 249.63 83.38 250.33 207.61 374.56 208.31 373.86"/><polygon points="250.25 82.04 250.25 82.05 250.6 82.39 250.25 82.04"/><rect x="228.72" y="366.4" width="1" height="58.13" transform="translate(-212.68 278.57) rotate(-45.09)"/><rect x="354.14" y="158.13" width="1" height="58.01" transform="translate(-28.45 305.58) rotate(-45)"/><rect x="158.36" y="145.14" width="58" height="1" transform="translate(-48.11 175.14) rotate(-45)"/><rect x="312.26" y="116.05" width="1" height="58.43" transform="translate(-11.11 263.7) rotate(-45)"/><polygon points="208.93 124.78 250.25 83.46 291.04 124.25 291.75 123.54 250.6 82.39 249.9 83.11 249.54 82.75 208.22 124.07 208.93 124.78"/><polygon points="375.5 208.71 416 249.2 416.35 248.85 416.7 248.5 376.21 208 375.5 208.71"/><rect x="42.95" y="153.73" width="1" height="111.93" transform="translate(-135.55 92.14) rotate(-45)"/><polygon points="415.79 416.5 333.38 498.92 250.83 416.38 250.13 417.08 333.04 500 333.71 500 416.5 417.21 415.79 416.5"/><polygon points="417.41 249.21 417.06 249.56 416.7 249.91 499.54 332.75 416.5 415.79 417.21 416.5 500 333.71 500 331.79 417.41 249.21"/><rect x="166.43" y="165.82" width="0.5" height="1" transform="translate(-68.79 166.57) rotate(-45)"/><rect x="82.88" y="249.13" width="1" height="1" transform="translate(-152.09 132.07) rotate(-45)"/><rect x="207.72" y="124.28" width="1" height="1" transform="translate(-27.24 183.8) rotate(-45)"/><rect x="375" y="207.5" width="1" height="1" transform="translate(-37.1 326.44) rotate(-45)"/><polygon points="207.61 374.56 208.31 375.27 209.02 374.56 208.31 373.86 207.61 374.56"/><rect x="457.68" y="399.74" width="1" height="116.88" transform="translate(-189.78 458.18) rotate(-45)"/><rect x="158.57" y="311.63" width="57.87" height="1" transform="translate(-165.79 224) rotate(-45)"/><polygon points="208.31 290.61 209.02 291.31 249.81 250.52 332.54 333.25 332.9 332.9 333.25 332.54 249.81 249.1 208.31 290.61"/><polygon points="333.61 333.6 333.25 333.96 415.79 416.5 416.5 415.79 333.96 333.25 333.61 333.6"/><rect x="207.81" y="290.81" width="1" height="1" transform="translate(-144.98 232.62) rotate(-45)"/><rect x="166.61" y="332.26" width="0.5" height="1" transform="translate(-186.42 215.45) rotate(-45)"/><rect x="416" y="416" width="1" height="1" transform="translate(-172.52 416.5) rotate(-45)"/><polygon points="416.3 83.75 415.94 83.4 333.77 165.57 334.48 166.27 416.65 84.11 457.73 125.06 458.44 124.36 416.97 83.02 417 83.05 416.3 83.75"/><rect x="233.41" y="374.31" width="116.56" height="1" transform="translate(-179.6 316.03) rotate(-45)"/><polygon points="458.44 125.77 499.29 166.5 416.7 248.5 417.41 249.21 500 167.2 500 165.79 459.14 125.06 458.44 125.77"/><polygon points="333.25 332.54 333.96 333.25 416.7 249.91 416 249.2 333.25 332.54"/><polygon points="249.42 416.38 166.5 499.29 166.85 499.65 166.5 500 167.21 500 250.13 417.08 249.42 416.38"/><rect x="333.4" y="166.13" width="0.02" height="1" transform="translate(-20.17 284.59) rotate(-45)"/><polygon points="458.44 125.77 459.14 125.06 458.44 124.36 457.73 125.06 458.44 125.77"/><rect x="333.27" y="165.77" width="1" height="1" transform="translate(-19.81 284.71) rotate(-45)"/><rect x="249.63" y="415.88" width="1" height="1" transform="translate(-221.15 298.79) rotate(-45)"/><polygon points="416.35 248.85 416 249.2 416.7 249.91 417.06 249.56 417.41 249.21 416.7 248.5 416.35 248.85"/><polygon points="332.54 333.25 333.25 333.96 333.61 333.6 333.96 333.25 333.25 332.54 332.9 332.9 332.54 333.25"/><polygon points="373.92 41.38 374.63 40.67 333.96 0 333.5 0 333.02 0.48 373.92 41.38"/><polygon points="415.94 83.4 416.65 82.69 416.97 83.02 375.33 41.38 374.63 42.08 415.94 83.4"/><polygon points="415.94 83.4 416.3 83.75 417 83.05 416.97 83.02 416.65 82.69 415.94 83.4"/><polygon points="83.96 83.25 124.97 42.24 124.61 41.88 125.32 41.18 125.68 41.53 166.5 0.7 249.54 82.75 250.25 82.05 167.21 0 165.79 0 83.25 82.54 83.96 83.25"/><rect x="83.18" y="82.57" width="0.5" height="1" transform="translate(-34.31 83.32) rotate(-45)"/><rect x="124.65" y="41.46" width="1" height="0.5" transform="translate(7.16 100.71) rotate(-45)"/><rect x="249.57" y="82.32" width="1" height="0.5" transform="translate(15.58 202.45) rotate(-45.35)"/><rect x="241.51" y="144.77" width="58.44" height="1" transform="translate(-23.42 233.99) rotate(-45)"/><rect x="275.09" y="82.31" width="116.2" height="1" transform="translate(39.03 259.85) rotate(-45)"/><rect x="366.69" y="20.51" width="56.6" height="1" transform="translate(100.83 285.45) rotate(-45)"/><rect x="249.95" y="165.48" width="0.14" height="1" transform="translate(-44.13 225.41) rotate(-45)"/><rect x="291.25" y="123.75" width="1" height="1" transform="translate(-2.41 242.69) rotate(-45)"/><rect x="374.13" y="40.88" width="1" height="1" transform="translate(80.47 277.02) rotate(-45)"/><polygon points="82.79 416.5 0 499.29 0 500 0.71 500 83.5 417.21 82.79 416.5"/><rect x="83.07" y="416.18" width="0.5" height="1" transform="translate(-270.23 180.96) rotate(-45)"/></svg>