<svg id="Layer_1" data-name="Layer 1" xmlns="http://www.w3.org/2000/svg" viewBox="0 0 129.71 125.29"><defs><style>.cls-1{fill:none;}.cls-2{fill:#efedee;}</style></defs><title>logo</title><path class="cls-1" d="M181.08,161.32c-2.56,0-4.63,2.58-4.63,5.76s2.07,5.76,4.63,5.76v18h9.26V161.32Z" transform="translate(-135.17 -137.41)"/><path class="cls-2" d="M256.87,137.43H238.3v53.45H216.91V137.41h-37v0a27.68,27.68,0,0,0-8.9,53.51c-19.9.7-35.81,16.42-35.81,35.73,0,19.75,16.65,35.76,37.2,35.76,2.35,0,5.12.39,7.54.22h1.17V237.19a10.57,10.57,0,0,1-2.53-20.91h11.79v38.37a8,8,0,0,0,8,8h18.57V216.28H238.3v46.39h18.57a8,8,0,0,0,8-8V145.43A8,8,0,0,0,256.87,137.43Zm-75.79,53.45v-18c-2.56,0-4.63-2.58-4.63-5.76s2.07-5.76,4.63-5.76h9.26v29.56Z" transform="translate(-135.17 -137.41)"/></svg>