<svg width="130" height="126" viewBox="0 0 130 126" fill="none" xmlns="http://www.w3.org/2000/svg">
<g clip-path="url(#clip0)">
<path d="M121.7 0.019989H103.13V53.47H81.74V0H44.74C38.3626 0.23108 32.2608 2.65871 27.4677 6.87195C22.6745 11.0852 19.4845 16.8252 18.4374 23.1204C17.3904 29.4156 18.5507 35.8792 21.722 41.4171C24.8933 46.955 29.8807 51.227 35.84 53.51C15.94 54.21 0.0300293 69.93 0.0300293 89.24C0.0300293 108.99 16.68 125 37.23 125C39.58 125 42.35 125.39 44.77 125.22H45.94V99.78C43.2948 99.872 40.7114 98.9682 38.7004 97.2473C36.6894 95.5264 35.3972 93.1137 35.0793 90.486C34.7613 87.8584 35.4408 85.2071 36.9833 83.0562C38.5259 80.9054 40.8192 79.4115 43.41 78.87H55.2V117.24C55.2 119.362 56.0429 121.397 57.5432 122.897C59.0435 124.397 61.0783 125.24 63.2 125.24H81.77V78.87H103.13V125.26H121.7C123.822 125.26 125.857 124.417 127.357 122.917C128.857 121.417 129.7 119.382 129.7 117.26V8.01999C129.7 5.89826 128.857 3.86343 127.357 2.36314C125.857 0.862853 123.822 0.019989 121.7 0.019989ZM45.91 53.47V35.47C43.35 35.47 41.28 32.89 41.28 29.71C41.28 26.53 43.35 23.95 45.91 23.95H55.17V53.51L45.91 53.47Z" fill="#EFEDEE"/>
</g>
<defs>
<clipPath id="clip0">
<rect width="129.71" height="125.29" fill="white"/>
</clipPath>
</defs>
</svg>
